/* XPM */
static char *_d4a0b3303d743bd84a817e7f5161833PyUayuYIbOSUXcC9[] = {
/* columns rows colors chars-per-pixel */
"64 64 256 2 ",
"   c #06181B",
".  c #101915",
"X  c #03251B",
"o  c #0D321B",
"O  c #302B18",
"+  c #061C24",
"@  c #0A1C30",
"#  c #082827",
"$  c #142728",
"%  c #063828",
"&  c #173629",
"*  c #093933",
"=  c #153A35",
"-  c #092834",
";  c #272B29",
":  c #383528",
">  c #31312E",
",  c #291E19",
"<  c #4F361B",
"1  c #703812",
"2  c #48372A",
"3  c #563826",
"4  c #453735",
"5  c #512C2F",
"6  c #6A3D21",
"7  c #114D1D",
"8  c #2C501C",
"9  c #0C432C",
"0  c #084729",
"q  c #124A2A",
"w  c #18552B",
"e  c #0B4636",
"r  c #124434",
"t  c #154A38",
"y  c #0C5838",
"u  c #185737",
"i  c #055429",
"p  c #265B29",
"a  c #235B39",
"s  c #314A2C",
"d  c #1A6239",
"f  c #0C653C",
"g  c #29672A",
"h  c #367929",
"j  c #29683A",
"k  c #38773A",
"l  c #306E31",
"z  c #34721D",
"x  c #4E4630",
"c  c #6F4D2D",
"v  c #477A39",
"b  c #4E7830",
"n  c #60591C",
"m  c #0F3C47",
"M  c #154C45",
"N  c #195845",
"B  c #0B4E48",
"V  c #245B47",
"C  c #2E5347",
"Z  c #186848",
"A  c #187051",
"S  c #276748",
"D  c #346A47",
"F  c #2B7447",
"G  c #377746",
"H  c #286756",
"J  c #267455",
"K  c #367756",
"L  c #366B56",
"P  c #287A64",
"I  c #367967",
"U  c #337267",
"Y  c #1A7C67",
"T  c #447A45",
"R  c #4B774E",
"E  c #4C7A68",
"W  c #5D5851",
"Q  c #853508",
"!  c #904817",
"~  c #AA5515",
"^  c #8E502A",
"/  c #A75525",
"(  c #906B34",
")  c #B0682F",
"_  c #CD7329",
"`  c #C35E16",
"'  c #AC7443",
"]  c #906D4C",
"[  c #3B833D",
"{  c #2E8432",
"}  c #598828",
"|  c #4A8739",
" . c #578838",
".. c #5A963A",
"X. c #4D8B2B",
"o. c #79982B",
"O. c #688B37",
"+. c #689839",
"@. c #789A39",
"#. c #6D8E2B",
"$. c #5FA233",
"%. c #68A438",
"&. c #78A638",
"*. c #72A82C",
"=. c #79991C",
"-. c #3D8346",
";. c #368557",
":. c #2D8248",
">. c #2F8D71",
",. c #1A8A6B",
"<. c #478748",
"1. c #578848",
"2. c #589647",
"3. c #488856",
"4. c #539152",
"5. c #669947",
"6. c #769C43",
"7. c #6A924F",
"8. c #5EA454",
"9. c #68A447",
"0. c #76A647",
"q. c #6AA555",
"w. c #77AC53",
"e. c #438A67",
"r. c #4F9271",
"t. c #678E73",
"y. c #71AC6A",
"u. c #50A576",
"i. c #899929",
"p. c #889A36",
"a. c #959732",
"s. c #AF9D2E",
"d. c #87A839",
"f. c #97A939",
"g. c #96B73B",
"h. c #90AF30",
"j. c #A7A52B",
"k. c #A7A836",
"l. c #AFB135",
"z. c #A09C1E",
"x. c #D78937",
"c. c #C7A836",
"v. c #D1AF39",
"b. c #E19635",
"n. c #A5C53A",
"m. c #ADC430",
"M. c #8E9C45",
"N. c #87A946",
"B. c #99AE42",
"V. c #8AB54A",
"C. c #97B747",
"Z. c #8CB657",
"A. c #A8BB47",
"S. c #A8B84F",
"D. c #8AAA69",
"F. c #DAB648",
"G. c #D1AC47",
"H. c #E8AB47",
"J. c #E4B349",
"K. c #F1AF52",
"L. c #CD8B58",
"P. c #98C356",
"I. c #A9C348",
"U. c #B0C74C",
"Y. c #ADCF61",
"T. c #C1D34D",
"R. c #349A86",
"E. c #37A790",
"W. c #3DA8A0",
"Q. c #489A87",
"!. c #529990",
"~. c #68978C",
"^. c #46A488",
"/. c #56A58A",
"(. c #49A794",
"). c #57A898",
"_. c #54B399",
"`. c #69B89A",
"'. c #70AF90",
"]. c #5DBEBC",
"[. c #5DB6A6",
"{. c #64BDBB",
"}. c #71B8A9",
"|. c #5EC1BD",
" X c #63C1BE",
".X c #68C6B9",
"XX c #78C8B3",
"oX c #6BC19C",
"OX c #5ABCC3",
"+X c #63BEC7",
"@X c #5EC3C2",
"#X c #5EC1D4",
"$X c #63C2C1",
"%X c #6AC4C2",
"&X c #6EC8C6",
"*X c #65C7C8",
"=X c #7BCDC5",
"-X c #75CDCA",
";X c #7ACECA",
":X c #73C9C6",
">X c #7CD1CB",
",X c #78D2C7",
"<X c #79D5D4",
"1X c #74CCD2",
"2X c #88B6A6",
"3X c #9AB095",
"4X c #90CBB4",
"5X c #B0D1B6",
"6X c #A8D7AC",
"7X c #CBDBBA",
"8X c #D7E6BE",
"9X c #84CDC7",
"0X c #83D3CB",
"qX c #8CDACE",
"wX c #89D6CB",
"eX c #93DBCD",
"rX c #97D9CA",
"tX c #89D9D2",
"yX c #94DDD2",
"uX c #97DBD3",
"iX c #87CDD1",
"pX c #A6DBC9",
"aX c #ACDDCB",
"sX c #9DE2D3",
"dX c #9CE4D6",
"fX c #98E2CD",
"gX c #A7E2CD",
"hX c #B8E6CB",
"jX c #A4E3D4",
"kX c #A8E8D8",
"lX c #BBECD3",
"zX c #B6E9D5",
"xX c #BDF1D8",
"cX c #B6F0E2",
"vX c #94DCE4",
"bX c #CBEBCC",
"nX c #C7E6C7",
"mX c #D4EACA",
"MX c #D8F3CC",
"NX c #C8ECD4",
"BX c #D5EED3",
"VX c #C9F3D8",
"CX c #D5F5D8",
"ZX c #CDF2CF",
"AX c #E8EDC9",
"SX c #E7F5CC",
"DX c #F8F9CA",
"FX c #E8FAD6",
"GX c #FDFCD4",
"HX c #F9FAD8",
"JX c #E3E9D4",
"KX c #D3F6E3",
"LX c #E9FDE5",
"PX c #F9FEE2",
"IX c #CFDFC4",
"UX c #A4B6A9",
/* pixels */
"|.|.|.].].].].].$X$X$X$X$X$X$X$X].].$X%X$X].]. X X|.%X$X$X{.:X{..X&X+XOXOX%X+X+X$X X].{.+X+X$X|. X X].].].].|. X$X$X$X X X X$X$X",
"$X$X$X@X@X@X@X@X$X$X$X X X$X$X$X$X$X$X{.+X%X%X$X$X].].@X@XOX@XOX|.|.OX*X&X.X[..XOX X X X XOX|.|.%X%X%X$X$X$X$X$X$X$X$X$X X X$X$X",
"$X$X$X$X$X$X$X$X{. X X X X{.{.{.%X%X$X].].%X%X].$XOX@X@X*X*X@X@X#X#XOXOX$X].].*XOX@X$X X X X X$X$X$X%X$X$X$X$X$X$X$X$X$X X$X$X$X",
" X X X X X X X X X%X%X%X%X%X X X$X%X%X X X X X{.1X%X.X_.oXoXoX`.}.XXXX}..X%X*X#X+X$X*X X.X.X%X%X%X%X%X$X$X$X$X$X%X%X%X%X%X%X$X%X",
"%X%X%X%X%X%X&X&X&X&X:X:X:X:X:X&X%X&X&X-X&X.X:X;X+X}.oX3.y.w.Z.w.Z.Z.0. .<.u..X<X:X-X&X%X.XXX-X1X:X:X:X:X:X:X&X&X&X&X&X&X&X&X&X&X",
":X:X:X:X:X-X-X-X-X-X-X;X;X;X;X;X=X;X-X,X,X;X;X9XI e.y. .V.C.C.f.g.g.g.C.Z.y.'.XXXX=X1X-X,X,X>X1X-X;X;X9X9X;X;X-X-X-X-X-X-X-X-X-X",
";X;X;X;X;X>X>X>X;X;X;X;X>X>X>X>X9X0X>X-X>X0X}.!.w G w.&.C.C.d.C.I.I.A.I.S.Z.y.'.'.XX;X1X,X,X>X1X=X=XwXqXqXqX0X=X;X;X;X;X;X;X;X;X",
";X;X;X;X>X>X>X>X;X;X;X;X;X>X0X0X9XtX>X:X>X9X!.B G 4.0.&.*.&.} Z.g.I.U.m.m.n.N.0.8.'.=X1X-X=X;X>X=X0XuXdXjXuXqX0X;X;X;X;X;X;X;X=X",
"-X-X>X<X<X>X0X0XqX9X9X9X=X;X<XtX0XXX`.XX'.'.e.e G k | q.2.| | w.&.V.Y.B.g.n.n.n.S.| `.>XiXiX<X*XXXtXvXuXwXfXeXuX=X;X0X0X>X=X-X>X",
">X>X>X;X-X=X0XwXkXjXjXdXwX9X9XXXvX9Xr.-.y.<.a t S K R 3.k k k T 0.%.C.d.i.I.I.I.g.| /.XX'.'.`.,X0X:X:X1X=XXXXX=X>X0XtXtX>X=X=X;X",
"-X;X>X;X=X9XwXsXzXzXzXzXpXrXrX4X9XH j | ..0.y.8 p j a j g [ | G  .0.*.d.N.S.U.I.h. .r.'.w.0.2.'.`.4X<X<X<X<X<X>X0X0XtXwX0X=X;X0X",
"=X>X>X0X0XeXjXkXaXaXzXzXzXzXgX4Xu D 4.y.b +.w.&.9.<.S D -.2.<.K b P.#.N.Z.N.A.m.P.@.q.w.P.g.&.w.4.y.oX:X1X-X<X:X=X>X0X0X0X0X0XqX",
"qXtXwXtXyXdXkXkXcXcXcXcXcXcXsX}.7 G G v 5.w...0.9.G M M S S a M T q.&.&.V.o.g.h.N.N.d.=.I.U.A.B.C.N.y.4XfXtXiXwX=X0X0X0X0XwXqXyX",
"yXqXqXtXyXyXeXrXwXwXwXwXwX9X).H H u -.2.9...2.q.9.1.S e u j T T R p w.&.*.&.0.7.b N.h.h.g.U.A.U.n.d.0.y.'.9XiXuXwXqXqXqXqXqXeXyX",
"eXeXqXqXqXqXwXwXqXqXqXqXyXwX!.B H N <.2.5.| | q.2.1.G 0 w v 0.*.5.b 7.5...9.<.D v w.V.U.I.I.C.P.&.0.w.<.r.rXyXfXyXyXyXyXqXqXqXqX",
"wXeXqXtXtXtXtXyXuXyXqXwXfXeX!.e u % u R k 2.+.%.q t t * D 4.P.n.n.Z.D C R k p a 9.5.6.N.I.*.*.0.9.2.q.k r.sXwXwXeXeXyXyXeXqXqXqX",
"dXrXuXuXwXeX9XuXrXkXrX2XM u w j K % e e K D a t S <.| +.Z.V.d.P.l.U.d.1.M M r p +.5.q.0.&.V.P.@.q.5.w.2.e.qXvXuXrXrXjXdXyXyXyXuX",
"dXrXeXuXeXdXjXkXwXjX}.I % K 3.k j 9 M M S w w a T 2.0.V.V.d.g.U.U.U.I.@.T * e V 2.2...%.*.*.0.0.} &.+.| e.fXeXrXkXdXkXdXyXeXyXyX",
"uXuXuXdXuXuXjX4XpX4Xr.u 7 T 4.2.p 0 * m e 0 w G 5.+.0.V.N.d.C.I.S.A.U.I.N.g e B g -.4.2.9.9.9...9.5.l K !.tXqXdXjXsXyXyXeXqXeXyX",
"uXuXuXuXuXuXsX}.e t u D T |  .9.2.T V M B L <.8.w.+.+.&.0.0.d.h.U.I.l.T.U.V.v N w S u a j k 2.8.k k G '.sXyXyXyXfXsXwXeXfXeXsXdX",
"dXuXuXrXsXkXrX}.t S 3.3.4.| ..9.q.4.a * * L k { 9.9.9.9.9.5.%.&.g.C.B.k.l.U.N.b e V D q.D.v k 4.G <.2.2.q.4.4XfXeXkXfXsXdXfXsXjX",
"uXdXdXkXjXjX'.e.w S 3.4.4.2.2...| <.G u e K G h <.2...2.q.9...%.*.V.S.p.l.I.I.d.C T #.g.n.o.b 4.R G 8.9.9.| '.`.4XkXsXdXjXuXkXgX",
"uXdXjXkXjXrXH t ;.G k -.k | 2.2.l k k u e H D G G k | 2.5.9.9...+.V.P.N.C.C.C.N.1.Z.n.m.m.C.w.9.g p k 2.w.5.4.3./.fXjXjXkXsXkXgX",
"sXdXuXjXrXjXS N G k k -.k 4.4.k F F j q % e u D G k 5.9.X.X.9.9.5.9.#.%.%.w... .%.P.I.S.S.N.&.$.%.w.2.+.&.C.%.X.u.gXkXjXkXjXzXgX",
"sXjXkXkXjXrXH t G d j F F j j F u F V % r V S a h 4.4.j k 1.w.9.R p 2.q.4.g 2.5.0.&.g.g.A.A.I.h.&.%.5...$.9.9.q.<.q pXjXjXkXkXsX",
"kXjXjXjXjXpXE N D w S K S u u D u S V t N S S u k G D D a j k | V q k T k 7 | w.5.0.V.C.U.f.g.Y.V.0.5.9.9.+.....<.u ~.9XkXsXsXjX",
"jXjXzXcXzX4XE 9 t 9 t 0 9 K L % K 9 % t V u j K G S 0 u e t w G S 9 % 9 w j 1.5.9.5.5.6.C.d.0.Z.P.Z.q.2.5.9.9.5.3.G e ~.kXkXzXzX",
"cXzXzXgXzXVXxXgXkXH 0 S S 0 % u t * * r u S S w q e e e e N N t t t % * V r.4.h 9.v T  .%.*.+.l X. .k w g 1.2.| k D e ~.kXgXzXzX",
"zXzXzXzXxXxXpX2X>.y y J Z y i y % % r r r V V 0 % r r # * N V e % r * * t G k k | k 3.4.9.%.2.l h <.K u u G G g G u t ~.zXhXzXzX",
"zXhXhXzXlXzX'.E Z f Z f y Z Z Z t % % r r % % t r = = X % * t * % # # * % q w D g j G <.q.2.<.3.F J S N u u u u j % U '.lXhXhXzX",
"lXzXhXzXzXgXE 9 e y y i Z J d y % r r % * = $ X # # = = = # X   X   + = t q % % % 9 q q G G F F u e e e t u V L % V pXxXVXhXgXVX",
"lXlXNXlXzXxXK t N N e 0 N Z e u r r % X # # $ ; # # # $     + = $ $ @ + # % * @ - * r % % N L w t r r * 9 9 9 e E 2XKXhXhXVXxXzX",
"NXbXbXbXVXVXL V u e M t % S 9 e 0 e t * + . ; O + $ + -   $ ; , $ + + + # = ; . - - = # = t N * t % 0 N % 9 E E 2XaXVXlXhXzXxXxX",
"VXNXNXCXNXhXE % e % e % t 9 t e r % * * $ ; : : $     $   # ; 4 ; $ $ # +   $ 4 + + $ $ # % % % X u K % t 9 4XhXhXlXNXhXzXlXlXhX",
"NXNXhXNXNXCXhXt.% r * * % X * * t % # #     ; > : ; ; ; + $ ; 2 ; .   + # $ > 5 .   $ & # % 0 N S Z i S u % 9 2XVXxXzXhXlXVXNXhX",
"CXKXCXBXbXnXVX3XL = # * C & # = # # * = $ $ & ; : : : ; . ; : 2 ; $ # # + , O < > > ; > # % 9 Z i 0 y Z y 0 0 2XlXzXlXNXNXNXNXVX",
"hXbXbXnXMXmXFXnXhX& C C VXR = # = * # # - $ $ # : 4 4 ; , > 2 2 > # X # > 5 3 < > > ; & # * 0 N d 0 % u q 9 L 4XNXNXVXVXVXNXNXCX",
"KXCXBXIXHXFXFXFXbXVXNXNXhXVXE # % r t = t # X & , , : 2 4 2 3 3 4 . . x W c 2 O X & $ # & t 9 e 0 u q o 9 9 NXVXCXBXZXBXbXNXNXVX",
"hXbXMXFXHXGXDXDXLXbXNXNXVXhXt.= M V * # * * L 4X= ; > 2 x c c 6 3 3 c ] c O . & % t r * u r % % 0 t r 5X6X6XCXBXSXAXAXBXmXbXZXZX",
"NXCXFXHXDXDXGXGXFXMXnXNXlXhX5X'.0 t % r H V E cX2X~.W 2 3 c ^ ! c ^ / ^ < o * m e y y 9 V t 9 r r t E VXCXBXBXmXAXHXPXFXMXbXbXZX",
"VXCXHXHXHXHXGXDXDXHXHXFXNXhXzXhXpXM X = VXE E VXZXBX5X> 4 3 ^ / ^ ! ^ x o = * y y y a & NXR % q & 3XNXKXCXmXJXFXGXGXGXGXAXAXMXbX",
"^.^.u.u.^.`.6XFXDXDXGXHXFXCXCXBXnXnXCX7XBXnXbXCXbXBXUX; : 3 1 / ! Q ! 3XCXNXt.t u t t.LXnXKXKXBXMXCXbXbXCXMXSXFXDXDXDXGXHXPXLXCX",
").(.^.E.E.E.XXNXGXDXDXGXSXMXbXnXSXmXmXmXnXMXmXmXCXLX5X, 4 3 1 / / ! 1 3XCXVX5X2X2X2X5XBXLXBXmXBXDXDXSXHXSX8XSXGXGXGXGXHX5X4X4X`.",
"!.!.!.).(.Q.!.2XnX8XDXGXHXSXMXCXCXbXBXVXVXVXCXCXCXBX5X. > 2 1 ! ` _ ! 3XBXVXBXMXVXCXCXZXZXnXmXFXGXGXHXHXAXHXHXAXmXnXBXhX'./.).E.",
"(.Q.Q.Q.^.^.^.(.R._.6XCXFXAXDXHXLXBXLXCXnXhXLXJXCXnX7XE ; 2 6 / _ _ ! L.8XLXFXAXSXAXAXPXmXFXFXHXFXFXFXLXCXLXNX3X`./././.Q.!.).!.",
"R.^.r.>.;.;.>.>.E.E.(./.r.'.5XLXFXHX8XAXSXSXDXGXLXSXSXmX> 4 6 ) _ x.~ ^ ] 7XFXPXGXGXGXGXHXHXFXFX4X'.'./././.`./.(.^.^.)./././.Q.",
"K I I K G <.3.e.Q.Q.(.(.R.E._.oX'.FXSXAXSXHXDXGXHXDXDXPXx 4 6 ) _ x._ / ' HXFXHXGXGXHXPX3X2X2X2X[.).^._._.(.^.>.U e.r.u.^.>.,.,.",
"K J A A :.-.<.R ;.>.E.W.E.E.W.^.^.4XaXnX5X5XMXAXHXGXDXSXx : 6 ! ` _ x.~ / GXFXHX5X5X5XhX'._._._.).).!.!.Q.r.Q.I F :.F ;.r.>.H U ",
"S F F G G G G :.A P >.R.E.R.R.^.^.(.E.E.W.(.}.hXnXNXLXJXx < < c ~ _ x.) ] JXLX7X[.).(.)./.`._._._.Q.>.P P P J J K K K K K K K F ",
"A A A J J A A A Z A ;.>.J A J >.R.R.>.R.W.(.Q././.'.t.> : 2 < 6 c ! x.~ ( D.'.[.)._._._.>.>.R.W.>.>.Y A A B Z A f Z A A A A A A ",
"S S S S S S S Z S J K J S S S K >.>.>.>.>.>.>.>.,.(.t.o x 2 < 3 c ^ x._ ( x r._.'.).!.(.>.>.>.R.P P A Z Z Z d Z N Z Z Z Z Z Z Z ",
"1.1.1. .1.1.O. .1.1.1.1.1.1.1.1.T 4.4.3.;.;.>.R.R.I D : 2 < 3 3 Q / ~ ) ( < 7.w.y.u.>.>.>.>.,.Y -.G k k T T v v 1.1.1.R R R R R ",
"@.@.@.@.0.N.N.p.*.&.&.&.d.d.&.o.N.0.+. . .1.3.U I C ; 3 < 3 x x 1 ^ ! ) ' 1 ( @.6.q.r.r.r.E U U #.@.M.6.@.@.d.B.f.f.h.h.f.f.f.f.",
"| ..2...2.5.6.+.O.6.0.6.@.+.O.O.o.@.0.Z.Z.q.R t ; > 2 3 3 O < 3 x O c / ' 1 x W i.f.C.B.I.l.j.l.k.A.f.f.B.f.f.k.N.d.&.d.d.d.d.d.",
"k -.-.-.| 2.2.2.R 1.1.1.v v T G b z p p 8 8 s > : x : : x 3 c c 4 , c ^ ) ( c x C L R b N.f.h.h.f.f.o.#.&.N.@.#.7.5.5.5.5.+. . .",
"k G G k k |  .O.| | h z z h h g k N N N u s s ; x x : s O < c ^ c 3 3 c 1 ' ( n i d l z O.@.@.6.@.@.+...5.9.5.5.+.+.+.@.+.#.} } ",
"d d j j k G <.<.8.z z z h h g h l p D j G w s s u w w 7 8 s c ^ ^ n O < c ' ( n 0 0 p l p g l k X.X.+.#.#.@.O.+.#.o.&.&.+.6.0.} ",
"d d j j k k [ [ v  .@.M.M.N.@.#.z g { h h z b v l b v v  .| O.b #.N.6.b z O.#.b  . .O.p.p.p.p.o.p.p.f.f.A.A.B.S.f.B.B.@.} } } } ",
"d u u u j k G <.T | } o.p.i.a.k.O.} X.} i.a.a.M.a.a.M.p.&.*.*.#.=.g.f.o.} %.&.o.i.j.l.c.v.v.c.c.G.s.c.c.v.c.j.l.l.l.p.#.} X.X.X.",
"u w u u a j j k F [ { ..0.} #.o.M.a.a.z.s.G.G.G.J.J.H.c.s.k.k.j.l.j.j.k.f.k.k.k.s.F.F.v.H.H.H.J.H.J.J.v.v.l.z.j.j.i.#.}  .X.X.| ",
"0 q u u u u w w i :.{ [ <.[ <.| | 6.B.k.i.i.k.G.G.J.H.H.v.F.J.H.H.G.G.G.H.H.H.F.F.J.v.c.F.F.G.s.v.v.F.c.l.k.p.p.#.#. .| h g g v ",
"q q q w w w u u 0 a p p w w D 3.{ ..@.@.} ..o.k.a.k.s.G.c.G.H.K.K.F.F.G.K.K.K.F.c.c.s.s.l.k.a.i.j.k.k.i.p.N.O.} X.| h l j w w j ",
"t q q q q w a a t 9 a a t 9 w D -.| b 1.<.1.O.a.i.i.i.f.i.a.s.G.K.J.F.G.F.v.c.j.z.j.l.k.i.=.o.o.o.@.o.#.+.+.} } | g w w u u u w ",
"q q q q q q 9 9 u 0 w q 0 u w 7 R <.k <.G T  .p.p.p.i.d.o.i.a.G.H.H.K.J.F.z.j.l.A.f.f.f.o.#.#.O.} } } } } } } } k g a u u u u w "
};
