/* XPM */
static char *_dd3d4feebe447f49d46725816c2bf12BujKM5mDcnWi7Gm9[] = {
/* columns rows colors chars-per-pixel */
"64 64 221 2 ",
"   c #3F141B",
".  c #3C201F",
"X  c #2F1F25",
"o  c #341C24",
"O  c #3B1D26",
"+  c #341E2C",
"@  c #3B1E2A",
"#  c #341E32",
"$  c #3D1E30",
"%  c #2E232E",
"&  c #2A252B",
"*  c #342126",
"=  c #3C2225",
"-  c #35232D",
";  c #3B222C",
":  c #37292B",
">  c #2E2432",
",  c #292A33",
"<  c #272634",
"1  c #332433",
"2  c #3B2431",
"3  c #352A33",
"4  c #39293A",
"5  c #471A1F",
"6  c #43161E",
"7  c #48231D",
"8  c #461B23",
"9  c #4A1D24",
"0  c #421E2A",
"q  c #4C1E28",
"w  c #4A2125",
"e  c #43242C",
"r  c #4A222A",
"t  c #4C2A2E",
"y  c #532426",
"u  c #54252C",
"i  c #5A272C",
"p  c #54292B",
"a  c #5B2B2E",
"s  c #592323",
"d  c #51392F",
"f  c #432532",
"g  c #442B34",
"h  c #4D2B35",
"j  c #4B2E39",
"k  c #472A37",
"l  c #552C32",
"z  c #5A2A34",
"x  c #542C39",
"c  c #562732",
"v  c #463335",
"b  c #4C3436",
"n  c #45343C",
"m  c #4B343A",
"M  c #4C393C",
"N  c #533635",
"B  c #533C35",
"V  c #5A3A35",
"C  c #52363B",
"Z  c #5E353B",
"A  c #543B3B",
"S  c #5A3C3B",
"D  c #5D3335",
"F  c #4B332F",
"G  c #643335",
"H  c #693A33",
"J  c #64373C",
"K  c #643C3E",
"L  c #693B3E",
"P  c #6A3436",
"I  c #632E34",
"U  c #59423A",
"Y  c #63453E",
"T  c #64493E",
"R  c #4C3542",
"E  c #4C3A43",
"W  c #453945",
"Q  c #543542",
"!  c #5C3C44",
"~  c #583B45",
"^  c #462A40",
"/  c #643641",
"(  c #683440",
")  c #633D43",
"_  c #6C3B44",
"`  c #673D49",
"'  c #733E43",
"]  c #723E4A",
"[  c #5F4941",
"{  c #5E434A",
"}  c #594654",
"|  c #634443",
" . c #6C4244",
".. c #644942",
"X. c #64444B",
"o. c #6C434B",
"O. c #644B4C",
"+. c #694A4D",
"@. c #794446",
"#. c #74444C",
"$. c #7B454C",
"%. c #744A4D",
"&. c #7B4A4D",
"*. c #764545",
"=. c #624452",
"-. c #6D4552",
";. c #654A53",
":. c #6D4B54",
">. c #6C4C5A",
",. c #62455B",
"<. c #734652",
"1. c #7B4652",
"2. c #744B53",
"3. c #7D4A53",
"4. c #734D5A",
"5. c #7C4C59",
"6. c #6C5153",
"7. c #69525C",
"8. c #715054",
"9. c #74525C",
"0. c #7C525B",
"q. c #7C5556",
"w. c #6F5062",
"e. c #7D5661",
"r. c #795B67",
"t. c #7B636A",
"y. c #776369",
"u. c #7A6272",
"i. c #81454C",
"p. c #824B4D",
"a. c #884E4A",
"s. c #81514F",
"d. c #804653",
"f. c #834D53",
"g. c #884F55",
"h. c #824E59",
"j. c #825154",
"k. c #855259",
"l. c #8A5359",
"z. c #8C5B5D",
"x. c #885757",
"c. c #945C5D",
"v. c #9C5E5E",
"b. c #955959",
"n. c #A35E5D",
"m. c #8D615E",
"M. c #94625E",
"N. c #9D625D",
"B. c #95665C",
"V. c #A1605D",
"C. c #845B62",
"Z. c #8C5D63",
"A. c #8D5E6A",
"S. c #8E5661",
"D. c #955D63",
"F. c #9C5F63",
"G. c #965F6B",
"H. c #9A5E68",
"J. c #A15F62",
"K. c #8E6264",
"L. c #84636B",
"P. c #8D636B",
"I. c #8C6A6E",
"U. c #886A66",
"Y. c #956363",
"T. c #9C6163",
"R. c #966863",
"E. c #9C6965",
"W. c #94656B",
"Q. c #9C646A",
"!. c #94696D",
"~. c #9A6A6B",
"^. c #9B766C",
"/. c #9A766A",
"(. c #8A6B74",
"). c #826977",
"_. c #946572",
"`. c #9A6672",
"'. c #946A71",
"]. c #996B71",
"[. c #967272",
"{. c #9C7B72",
"}. c #9C7975",
"|. c #A16162",
" X c #A3636A",
".X c #A16968",
"XX c #A2776C",
"oX c #A2776A",
"OX c #A27B73",
"+X c #A57D7D",
"@X c #AA7C7F",
"#X c #9E8171",
"$X c #A3807E",
"%X c #AA847D",
"&X c #A58475",
"*X c #877987",
"=X c #A57F80",
"-X c #AA7F81",
";X c #9C868C",
":X c #A58482",
">X c #AB8482",
",X c #A68985",
"<X c #AB8C85",
"1X c #A78A89",
"2X c #AC8D8A",
"3X c #A7878A",
"4X c #B28C84",
"5X c #B18E8A",
"6X c #B98C84",
"7X c #AD908C",
"8X c #A89084",
"9X c #B2928D",
"0X c #B99588",
"qX c #A88A95",
"wX c #B39292",
"eX c #AF9793",
"rX c #BEA19B",
"tX c #BEA0A0",
"yX c #C2A59D",
"uX c #C3A5A3",
"iX c #C1A8A3",
/* pixels */
"= N x.R.{.{.XXXX^./.{.{.XXoX6X0X4X%X%XOX{.{.^.OXoXoX{.OX/./.{.^.{././.OX^.}.}.{.XXXXXX^.{.^.OX&X#X0X4XXX6XOX{.{.^.{.}.^.[.q.N . ",
"v t.q.!.2X2X5X%X<X<X1X,X%X4X5X>X7X<X<X9X,X,X9X>X4X<X2X2X<X<X2X1X,X<X2X<X,X1X2X2X<X%X4X5X2X2X<X<X8X<X5X>X<X,X:X2X2X2X,XwXwX+.(.A ",
"4 W E E n E v A M M E E m m v E M b m b m M m C b m R R C C n E n M M b E E E E C N C C E E m m M v b b b ~ M m M M m n m n E 3 ",
"> > 3 X 3 % - @ ; @ 2 + f ; * 2 ; ; ; e ; - f @ e ; 2 1 - ; 1 1 3 3 * - - 1 + 2 ; e O O f o ; ; * : ; e ; O ; ; - - ; - 2 3 % 1 ",
"2 j 6.A ~ =.9.9 o.<.<.h <.2.X.; o.%.h._ <.<.r ) 2.! j 2 = : 3 * - o e ; ; ; m X.:.2.2.2.+.h <.2.;.O 0 Q -.` X.! f ; ~ @ f r.E + ",
"h I.[.S :.8.o.9 D.~.A.z Y.!.L.e l.H. XF.~.~.Z.W.Y.[.Q ; 6.X.* g 6.t K %.>.e k C.W.Y.Q.Q.3.G W.Y.I.0 <.k.5.1.5.2.r 9.0.:.h (.L.{ ",
"S 1X!.Y 8.+.x.G Q.Q.z.z Y.K.I.r l.T.|.b.T.D.g.Y.E.K.) ` C.C.+.t C.q.K.z.Z.2.Z 0.Q.D.T.Q.p.@.T.Q.W.  f.D.D.Q.Y.z.y ~.Z.%.l =X2X| ",
"S 2X>XK %.2.Y.T.T.T.z.I ~.Y.!.8 k.T.F. X.Xc.Q.T.M.Y._ o.Y.K.%.r W.Y.Y.Y.A.k.u l.T..Xv.T.Q.T.v.T.W.5 &.H.T.T.T.Y.c.Y.Y.3.y OX5X..",
"V 9X%XL #.3.H. X|.F.D.' Q.Q.W.u k.Q.T.N.T.T.T.Q.T.Y./ ` W.Z.#.u W.Y.Q.Q.W.h.z k.Q.T.T.T.Q.Q.T.T.W.8 $.H.T.T.Q.Y.f.Z.W.3.y }.1X..",
"S 2X>X_ 1.d. Xv. Xv.b.P F.Q.`.9 k.T.T.N.T.T.T.T.M.E._ ` Y.E.W.D.Q.T.T.T.Q.f.z k.T.T.T.T.T.T.T.T.W.8 &.H.T.F.T.Y.D.Y.W.&.p +X2X..",
"B <X<XG #.f.F..XJ.v.c.@.T.E.~.9 g.F.V.n.V.V.|.|.N.T.J o.E.M.j.' T.J.n.|.F.f.a g.|.V.V.N.N.N.V.T.W.9 $.H.J.J.|.F.T.Q.Y.&.p -X5X..",
"V 7X$X .%.3.Q.b.v.v.T.T.T.T.Y.y g.T.V.n.V.V.V.V.N.T.J _ T.N.T.T.|.J.n.V.T.f.i g.T.V.V.N.N.N.V.T.W.8 $.F.J.n.|.v.F.Q.Y.&.p +X2XY ",
"N 7X:XK -.2.D.Q.|.F.F.T.T.Q.W.q k.Y.T.N.N.N.T.T.v.Y._ #.T.v.v.T.T.T.V.T.T.f.z k.T.T.T.T.T.T.N.T.W.5 $.F.N.N.N.N.c.T.Y.&.p +X2XT ",
"S wX,X) 4.4.W.Q.T.F.T.v.T.Q.].9 k.Y.T.N.N.N.T.T..XY.J _ T.|.|.F.T.T.N.T.Y.j.z k.T.T.T.T.T.T.T.T.W.5 $.M.N.N.V.N.T.E.D.&.p $X2XT ",
"C wX}.| g j 0.Y.F.|..XT..XT.!.9 k.H.|.n.V.n.|.T.M.Y./ o.E.M.T.T.T.N.N.T.Y.k.a k.T.T.T.T.T.T.V.T.W.8 $.F.|.n.|.N.T.Q.D.&.p +X2XY ",
"S 2X,X{ t.qXt Y.T.T.v.T.T.Y.W.w k.F.J.J.V.n.J.|.T.E./  .Y.M.T.M.N.N.N.T.Y.j.a k.T.T.T.F.T.T.V.T.W.8 &.F.|.n.|.T.F.Q.H.3.a +X2X..",
"A 7X,X! t.qXr !.Y.T.T.T.N.T.!.w k.Q.|.F.N.N.|.J.T.Y.J  .E.M.T.T.T.T.T.T.Y.j.z k.N.N.J.T.T.T.T.T.W.8 $.F.N.N.T.T.T.T.H.3.p +X2X| ",
"U eX:X! :.9.) K.Y.T.T.T.N.T.!.w k.Q.T.F.T.N.|.J.T.Y.J  .E.T.T.|.T.T.T.T.Q.j.z k.N.N.|.T.T.T.T.T.W.5 $.F.N.N.T.T.T.T.H.3.p $X2X| ",
"B iX1XK X.;.P.Z.Y.T.T.T.N.T.!.w k.T.T.F.N.N.|.J.T.Y.J  .E.T.T.|.T.T.T.T.Q.j.z k.T.N.|.T.T.T.T.T.W.5 $.F.N.N.T.T.T.T.H.3.p $X2X| ",
"U uX$X) 2.4.W.Y.T.T.T.|.v.T.!.w k.Q.T.F.N.N.|.J.T.Y.J  .Q.T.T.|.F.F.T.T.Q.f.z k.T.N.|.T.T.T.T.T.W.5 $.F.N.N.T.T.T.T.H.3.p $X2X| ",
"U iX>XK <.5.Z.Q.T.V.|.V.v.T.!.9 k.H.|.F.N.N.|.J.T.Y.J  .Q.N.N.V.T.T.T.T.Q.j.z k.T.N.|.T.T.T.T.T.W.5 $.F.N.N.T.M.T.T.H.3.p $X2X| ",
"S rX>XL <.5.Q.v.V.V.n.J.v.T.!.9 k.H.|.F.N.N.|.J.T.Y.J  .Q.M.N.V.T.T.T.T.Q.j.z k.T.N.|.T.T.T.T.T.W.5 $.F.N.N.T.M.T.T.H.3.p $X2X| ",
"U 9XOXL 5.1.Q.F.J.n.n.J.v.T.W.9 k.T.|.F.N.N.|.J.T.Y.J  .Q.T.N.V.T.T.F.T.Q.f.z k.T.N.|.T.T.T.T.T.W.5 $.F.N.N.T.T.T.T.H.3.p $X2X| ",
"U yX>XL #.3.H.|.V.V.n.|.v.Q.!.9 k.T.|.F.N.N.|.J.T.Y.J  .E.M.N.V.T.T.F.T.T.f.z k.T.N.|.T.T.T.T.T.W.5 $.F.N.N.T.T.T.T.H.3.p $X2X| ",
"B <X%XL 1.3.Q.F.V.V.V.T.N.E.!.q k.T.T.F.N.N.|.J.T.Y.J  .E.T.T.|.T.T.T.T.Q.j.z k.T.N.|.T.T.T.T.T.W.5 $.F.N.N.T.T.T.T.H.3.p $X2X| ",
"B <X%XL 1.3.Q.F.V.V.N.T.N.E.!.q k.Q.|.F.N.N.|.J.T.Y.J  .E.T.T.|.T.T.T.T.Q.j.z k.T.N.|.T.T.T.T.T.W.5 $.F.N.N.T.T.T.T.H.3.p $X2X| ",
"B 2X%XL &.3.Q.F.N.N.T.T.M.E.!.r k.T.T.F.T.N.|.J.T.Y.J  .E.T.T.|.T.T.T.T.Q.j.z k.T.N.|.T.T.T.T.T.W.5 $.F.N.N.T.T.T.T.H.3.p $X2X| ",
"B 2X>XL 1.3.Q.T.N.N.T.T.M.E.!.q k.T.T.F.T.N.|.J.T.Y.J  .Q.T.T.|.T.T.T.T.Q.j.z k.T.N.|.T.T.T.T.T.W.5 $.F.N.N.T.T.T.T.H.3.p $X2X| ",
"B 2X>XL 1.1.H.T.N.N.T.T.M.E.W.q k.Q.T.F.N.N.|.J.T.Y.J  .Q.M.N.V.F.F.T.T.Q.j.z k.T.N.|.T.T.T.T.T.W.5 $.F.N.N.T.T.T.T.H.3.p $X2X| ",
"B 2X>XL 1.1.H.F.N.N.T.T.v.T.~.q k.T.T.F.N.N.|.J.T.Y.J  .Q.M.N.V.F.F.T.T.Q.j.z k.T.N.|.T.T.T.T.T.W.5 $.F.N.N.T.T.T.T.H.3.p $X2X| ",
"B 2X>XL 1.3.H.T.N.N.T.T.v.T.~.q k.Q.T.F.N.N.|.J.T.Y.J  .Q.T.N.V.T.F.F.T.Q.j.z k.N.N.|.T.T.T.T.T.W.5 $.F.N.N.T.T.T.T.H.3.p $X2X| ",
"B 2X>XL 1.3.Q.F.N.N.T.T.v.T.~.q k.Q.|.F.N.N.|.J.T.Y.J  .E.M.N.V.J.F.F.T.Q.j.z k.N.V.|.T.T.T.T.T.W.8 $.F.T.M.W.Y.W.W.H.3.p $X2X| ",
"B 2X:XL 1.d.H.T.N.N.T.T.T.Q._.q k.Q.T.F.N.N.|.J.T.Y.J  .E.M.V.V.J.F.F.T.Y.j.z k.N.V.T.T.T.T.T.T.P.8 $.v..Xc.X.Q Q e.W.&.p $X2X| ",
"B 2X:XL 1.1.H.T.N.N.T.T.T.Y._.q k.Q.T.T.N.N.|.J.T.Y.J  .E.M.V.n.J.F.F.T.Q.j.z k.N.V.T.T.T.T.T.T.P.8 @.T.F.#.~ 7.;Xg P.3.7 }.tX+.",
"B 2X:XL 1.d.H.T.N.N.T.T.M.Y.W.q k.H.T.T.N.N.J.J.T.Y.J  .E.M.F.J.J.T.F.T.Q.j.z k.N.V.T.T.T.T.T.T.!.8 &.T.D.W.).} *X+ I. .V $X1XO.",
"B 2X:XL 1.d.H.T.N.N.T.T.M.T.W.q k.H.T.T.N.N.|.J.T.Y.J  .E.T.F.J.J.T.T.T.T.f.z k.N.n.T.T.T.T.T.T.W.8 *.c.D.~.(.} *X- '.%.w +XuX6.",
"B <X>XL 1.1.Q.T.N.N.T.T.M.E.W.q g.T.T.T.T.N.|.J.T.Y.J  .E.T.J.J.J.T.T.T.Q.j.z k.T.V.T.T.T.T.T.T.W.8 &.~.T.H.P.=.r.; Z.&.a +XuX6.",
"V <X>XL 1.1.Q.T.N.N.V.T.M.E.W.q k.Q.T.T.T.N.|.J.T.Y.J  .E.T.|.J.J.T.T.T.Q.j.z k.T.V.T.T.T.T.T.T.`.6 *.M.D.Q._.=.).2 P.&.a @XuX6.",
"V 2X>XL 1.1.Q.T.N.N.V.|.N.T.!.q k.Q.T.T.T.N.|.J.T.Y.J  .E.T.|.J.J.T.T.T.Q.j.z k.T.V.T.T.T.T.T.T.W.q &.Y.Q.#.e ; y.- I. .p +XwXX.",
"V 2X>XL 1.1.Q.T.N.N.V.|.N.T.!.q k.Q.T.T.N.N.|.J.T.Y.J  .E.T.|.J.J.T.T.T.Q.j.z k.T.V.T.T.T.T.T.T.W.6 $.E.Y.%.X.t.t.g I.2.p -X2XO.",
"V 2X$XL <.1.D.T.N.N.V.|.M.T.!.q k.Q.T.T.N.N.|.J.T.Y.J  .E.T.F.J.F.F.T.T.Q.j.z k.T.V.T.T.T.T.T.T.!.9 @.F.Q.Q.C.k.C.'.A.1.p +XwX| ",
"V 2X+X .<.h.Q.M.N.N.V.|.N.T.!.q k.Q.T.N.N.N.|.J.T.Y.J  .E.M.n.J.F.F.T.T.Q.j.z k.T.V.T.T.T.T.T.T.P.9 i.F.F.Q.Y.C.Z.].D.#.a +X2X| ",
"V 2X<XD %.5.Z.T.N.N.V.V.N.E.!.q k.H.T.F.N.N.J.J.T.Y.J  .E.M.J.J.J.T.T.T.Q.j.z k.T.V.T.T.T.T.T.T.W.8 $.T.Q.z. .5 5 C.].%.t >XwX| ",
"S 2X>X) 2.5.~.c.N.N.J.J.N.E.!.q g.H.T.F.N.N.|.J.T.Y.J  .E.M.|.J.J.T.T.T.Q.j.z k.N.V.T.T.T.T.T.T.!.8 $.H.Q.~.m.%.K.W.Z.%.D +X>X .",
"N 7X$X) o.5.Y.E.N.N.J.J.N.E.!.q k.Q.T.T.N.N.|.J.T.Y.J  .E.T.|.J.J.T.T.T.T.j.z k.T.V.T.T.T.T.T.T.K.8 d. XF.T.T.v.v.T.Y.&.y +X5X| ",
"S 7X:X) 2.2.K.Y.T.N.J.J.N.E.!.q k.Q.T.T.N.N.|.J.T.Y.J  .E.T.|.J.J.T.T.T.T.j.z k.T.V.T.T.T.T.T.T.!.8 $.F.F.T.|.|.|.F.Y.&.y -XwX| ",
"B 7X:X) x x Z.~.M.N.J.J.F.Y.!.q k.Q.T.T.N.N.|.J.T.Y.J  .E.T.V.n.J.T.T.T.T.j.z k.T.V.T.T.T.T.T.T.K.9 &.Q.T.F.n.n.v.c.Y.&.i @X2XU ",
"S 7X:X| r.qXu Y.T.N.F.J.F.Q.!.q k.Q.T.T.N.N.|.J.T.T.J  .E.N.N.V.|.J.T.T.T.f.z k.T.V.T.T.T.T.T.T.Y.9 #.D.T.|.n.n.T.Q.Y.&.i @X1XO.",
"S 2X3X! u.qXx !.Y.T.T.|.n.T.!.r k.T.T.N.N.N.|.V.N.M.J  .Y.N.T.N.J.J.T.T.Q.f.z k.T.n.J.T.T.T.T.T.W.8 $.T.|.n.V.N.F.F.H.&.u +X7X..",
"S 2X2X~ u.).0 W.Y.T.N.V.n.|.!.e k.T.T.M.N.M.|.V.N.Y.J  .Y.N.T.T.J.J.T.T.T.j.z k.T.V.|.T.T.T.T.T.!.8 $.T.J.v.N.N.T.T.H.3.p +X7X..",
"V 1X+X| k f A.Q.T.N.N.V.n.|.W.r k.Q.T.M.N.N.T.T.T.Y.J o.Y.M.T.T.|.V.T.T.M.s.a k.N.V.T.T.T.T.N.T.!.9 &.T.T.v.N.T.T.T.H.3.p $X2X[ ",
"V <X>XK :.9.~.D.N.N.N.V.n.|.W.w k.Q.T.M.T.T.|.T.T.Q./ o.E.M.T.|.|.V.N.T.M.s.a k.N.V.T.T.T.T.N.T.!.8 &.Q.T.v.T.N.T.Q.D.$.p +X7X[ ",
"B 2X+XL 2.2.W.T.M.N.N.N.n.|.W.q k.F.T.N.T.T.|.J.|.Q.( ] T.N.|.J.J.|.|.T.M.f.z k.V.V.|.T.T.T.N.T.!.8 $.T.|.J.|.v.T.F.H.&.i +X2X..",
"V 2X>XL 2.5.c..XN.N.N.N.n.|.W.q k.F.|.N.T.T.|.J.|.F.( ] T.N.J.J.J.|.|.T.T.f.z k.|.n.J.J.J.|.|.T.W.8 $.F.|.J.|.F.T.T.F.p.i +X9X..",
"S 2X>XL ] h.F.|.N.N.M.T.J. X`.q l.F.|.v.N.T.|.J.|.T.( ] T.N.J.J.J.T.T.T.T.g.z k.|.n.J.T.T.T.J.T.W.8 $.F.F.v.|.|.T.T.T.p.y +X2X..",
"A 2X=X' 1.d. Xv.N.M.T.T.F.Q.`.q l.F.|.N.N.N.|.|.T.T.J  .T.N.|.|.T.T.T.T.Q.f.z k.T.V.T.T.T.T.T.T.W.8 &.F.c.b.v.T.T.T.T.i.y OX<XY ",
"B 2X:XL 3.1.H.T.N.T.Y.E.c.Q.].q k..Xv.N.N.M.v.T.T.R.K  .M.N.M.T.Y.Q.D.E.E.f.c k.T.V.M.T.Q.T.T.Q.P.9 $.D.T.c.T.T.M.Y.Y.p.y OX2XY ",
"B :X[.L 1.d.c.p.H R.M.Y..XQ.P.r l.v..XN.M.E.T.T.M.R.Z | M.B.N.M.Y.z.M.T.E.f.u k.N.N.M.T.c..Xb.T.K.8 $.D.*.P T.T.R.~.z.p.a +X2X..",
"b U.U. .#.1.Q.&.H B.Y.E.c.M.].9 k. X|.v.T.M.Q.F.E.Y.Z %.Y.M.v.T.T.x.M.T.T.p.I &.b.V.N.T.M.v.|.T.Y.9 d.H.Q.Q.Q.F.Y.z.T.i.y !.[.V ",
"N U.U.K 1.3.Q.&.H E.Y.T.M.Y.'.9 k.H.D.c.Y.Y.Q.Q.D.Y.) o.M.T..XT.j.s x.c.T.j.u l.N.N.N.M.T.T.|.T.W.8 1.Q.#._ H.Q.Z.z.Q.i.u W.P.S ",
"t I.I.J 3.3.D.g.G Y.D.Q.T.Q.'.r 2.0.2.c 2.<.u 5.k.5.Q X.Y.E.Q.D.k.y 3.Y.Q.3.z 5.T.a.s Y.Q.D.F.D.!.9 #.G.#.#.`.Q.Z.Z.S.d.z '.L.! ",
"C r.(.) -.5.A.%.Z K.G.G.D.W.C.e Q =.Q O O.{ @ :.X.j 2 =.I.K.Z.W.C.r 0.P.W.0.x e.Y.Y.q.!.Z.A.Q.W.L.0 4._.o.o.A.A.9.e P.5.r L.(.Q ",
"- * n 2 ^ ,.w.k k 9.4.<.2.:.m - 1 > > 3 > - 3 + 2 + 1 4 ;.8.<.2.;.2 k >.>.f # ~ +.l e X.>.Q -.>.g - k >.;.2 ~ 9.n X >.e 2 n - % ",
"1 % 1 % # 4 1 - 2 + $ f O ; - > < , , , & , > 1 1 % 4 > ; = O e - 1 + + 2 # 4 1 e o ; 2 + @ f 2 - - ; + - - f o & : ; O - % > 3 "
};
