/* XPM */
static char *_57a7af714514094f6ffee1437ebcebdQN1tnyzFa8EZJ5KJ[] = {
/* columns rows colors chars-per-pixel */
"64 64 256 2 ",
"   c #391B1A",
".  c #2D1A17",
"X  c #2B241B",
"o  c #3B231C",
"O  c #352619",
"+  c #2F2B12",
"@  c #361E26",
"#  c #2A2624",
"$  c #352323",
"%  c #3C242A",
"&  c #3C2A2C",
"*  c #392726",
"=  c #392B32",
"-  c #36332D",
";  c #172628",
":  c #471B17",
">  c #541D18",
",  c #421E0C",
"<  c #43221C",
"1  c #48261B",
"2  c #572717",
"3  c #48311B",
"4  c #552F16",
"5  c #69351B",
"6  c #7A321C",
"7  c #6B2916",
"8  c #481C25",
"9  c #551E2B",
"0  c #651E21",
"q  c #432424",
"w  c #4C2424",
"e  c #4C2B24",
"r  c #43242B",
"t  c #4B2B2B",
"y  c #462929",
"u  c #532323",
"i  c #532B26",
"p  c #532C2B",
"a  c #5B2C2B",
"s  c #5A2826",
"d  c #4B3528",
"f  c #5B332C",
"g  c #573528",
"h  c #482A34",
"j  c #582D34",
"k  c #4D3636",
"l  c #543331",
"z  c #5C3333",
"x  c #593837",
"c  c #622C24",
"v  c #632C2C",
"b  c #6B2C2C",
"n  c #672927",
"m  c #752C28",
"M  c #63322D",
"N  c #6B322B",
"B  c #683728",
"V  c #74342C",
"C  c #7B352C",
"Z  c #743B2C",
"A  c #783827",
"S  c #682C33",
"D  c #752D35",
"F  c #643333",
"G  c #6B3433",
"H  c #6C3B33",
"J  c #6B3B3B",
"K  c #663738",
"L  c #733434",
"P  c #7B3334",
"I  c #733A34",
"U  c #7B3A33",
"Y  c #733B3B",
"T  c #7C3C3B",
"R  c #77343B",
"E  c #711A07",
"W  c #574435",
"Q  c #4E4332",
"!  c #77442C",
"~  c #69443A",
"^  c #7C4234",
"/  c #73433B",
"(  c #7C433C",
")  c #774838",
"_  c #79543B",
"`  c #6C462B",
"'  c #743C42",
"]  c #7B3B42",
"[  c #7A3845",
"{  c #6A3A45",
"}  c #5C3D42",
"|  c #6B4644",
" . c #784845",
".. c #795446",
"X. c #73534D",
"o. c #85382A",
"O. c #95392A",
"+. c #833533",
"@. c #833C34",
"#. c #843B3C",
"$. c #8A3D3C",
"%. c #893836",
"&. c #973C38",
"*. c #832E2D",
"=. c #A33C36",
"-. c #AA3D2D",
";. c #88341E",
":. c #8A432B",
">. c #97442D",
",. c #8B4333",
"<. c #84443C",
"1. c #8C433B",
"2. c #8D4B3B",
"3. c #864736",
"4. c #9B4334",
"5. c #94443C",
"6. c #9B443C",
"7. c #954B3C",
"8. c #9B4B3C",
"9. c #954534",
"0. c #89553C",
"q. c #99533B",
"w. c #A9462C",
"e. c #B54728",
"r. c #B9562C",
"t. c #A34B3B",
"y. c #A64739",
"u. c #B94B37",
"i. c #A8553D",
"p. c #BC543C",
"a. c #B95739",
"s. c #A7542C",
"d. c #A6441A",
"f. c #C84C2A",
"g. c #CB532D",
"h. c #C5552B",
"j. c #C84C38",
"k. c #D34B39",
"l. c #C45434",
"z. c #CC5433",
"x. c #C3533B",
"c. c #C95939",
"v. c #D35637",
"b. c #D7502E",
"n. c #CB6138",
"m. c #E45737",
"M. c #873B44",
"N. c #963D45",
"B. c #A33C44",
"V. c #8B4544",
"C. c #854B42",
"Z. c #8C4B43",
"A. c #874848",
"S. c #934343",
"D. c #9B4443",
"F. c #944B44",
"G. c #9C4B43",
"H. c #9B4C4A",
"J. c #97494B",
"K. c #895548",
"L. c #945344",
"P. c #9A5143",
"I. c #94534A",
"U. c #9A584B",
"Y. c #8B5955",
"T. c #9C5354",
"R. c #975B54",
"E. c #954A52",
"W. c #A24443",
"Q. c #A44C44",
"!. c #A74948",
"~. c #B84A44",
"^. c #A85748",
"/. c #BC5442",
"(. c #B55846",
"). c #AB5D53",
"_. c #A65954",
"`. c #B55A54",
"'. c #A34951",
"]. c #98644A",
"[. c #986558",
"{. c #8F6956",
"}. c #A9644B",
"|. c #B7664A",
" X c #AC6B5B",
".X c #A86658",
"XX c #B36454",
"oX c #B46A54",
"OX c #BB6B54",
"+X c #BB645A",
"@X c #B36C5C",
"#X c #BB6B5A",
"$X c #B76457",
"%X c #A7725A",
"&X c #BA735A",
"*X c #B6714F",
"=X c #B55D62",
"-X c #987066",
";X c #A96762",
":X c #B96B63",
">X c #AA7666",
",X c #B97666",
"<X c #B07471",
"1X c #C45C43",
"2X c #C85747",
"3X c #D55845",
"4X c #C8514B",
"5X c #C76547",
"6X c #C36B5C",
"7X c #C66856",
"8X c #C4745D",
"9X c #C67759",
"0X c #D57656",
"qX c #D3684E",
"wX c #C56B63",
"eX c #C47C63",
"rX c #C67867",
"tX c #D17A6F",
"yX c #E57C5E",
"uX c #C53C2C",
"iX c #B48971",
"pX c #BC8455",
"aX c #C9835B",
"sX c #DA885D",
"dX c #D48E57",
"fX c #E68E5D",
"gX c #CD8265",
"hX c #CA8769",
"jX c #D38564",
"kX c #D58C64",
"lX c #DC8C65",
"zX c #D4856B",
"xX c #D48B6C",
"cX c #DB8D6C",
"vX c #DB8666",
"bX c #DD926C",
"nX c #D89467",
"mX c #C98775",
"MX c #DB8D73",
"NX c #D68975",
"BX c #CC9579",
"VX c #DC9273",
"CX c #D99477",
"ZX c #CC9469",
"AX c #E38A69",
"SX c #E3936D",
"DX c #E69768",
"FX c #E58C75",
"GX c #E49578",
"HX c #F59474",
"JX c #EAA079",
"KX c #D69883",
"LX c #C88F84",
"PX c #E69781",
"IX c #FB9183",
"UX c #E3A287",
/* pixels */
"r # O U &.G.,.5.t u < ,.1Xl.k.2Xx.3Xj.p.6.Z.H / 4X/././.(.OX#XXX+ 2Xc.3Xk.e.n.l.l.1XA _ #X|.|.c.i.sXz.x.^ ) CXkXNXbXlXsXDXVX.XN ",
"r * q V.W.6.1.G.<X;X` 9.x.l.f.r.z.z.c.p.&.@.2.@X4.y.y.4.&.4.6.5.O 2Xl.p.3Xr.z.j.v.2XA 3.2Xu.l.f.3Xz.b.uXG.:XFXfXVXbXlXsXSXVXmX.X",
"@ * < V.W.%.F.^.@X#XB O.u.c.b.r.g.f.l.u.6.6.`.0X1.8.8.4.6.6.&.D.  2Xr.w.1Xl.g.3Xh.x.6 3.5Xa.c.b.v.d.3Xu.Z.%XcXfXlXSXSXcXxXzXeX@X",
"% & < S.W.%.F.`.}.#XZ 6.p.l.b.r.g.z.x.y.G._.rX7XF.F.5.5.G.S.1.S.r (.c.e.p.l.z.2Xc.2Xo.L.qXj.c.j.l.a.2X^.~ B xXdXvXlXVXVXVXzXrXOX",
"% * 1 S.W.,.1.!.&XrX) H.4Xu.k.p.x.1X/.&.V.(  XoXS.5.5.F.F.<.I G % 3.x.p.u.v.p.9.y.~.C 1.4Xu.~.~.j./.~.!.( N PXlXSXcXxXhXgXeX6XOX",
"@ $ a H._.R.L.).,X.Xg @.!.w.4XQ.!.(.O.o.^ B K.}.%.+.F._.F.^ H M $ 4 w.y.G.qXi.A A U g d 3.3.B I O.A %.+.B ! zXhXeXeXeX9X9X9X&XOX",
"& % J T._.%XK.`.}.)._ 2.^.:.`.C U  Xq.q.^.U.}.oX3.3._.@X2.A <.C.( ` y.L ~ `.t.3.].K...Q ` ) O * ! ` 0.2._ 0.&X%XZ. XhXbXbXbXxXhX",
"% @ K +.C _ B 1.t.wXiXBXxX].rX~ : BXCXVXxXVXCXMX%X.XmXmX2.o..X,XtXiX#Xp - G.4.).6X7X:X<.!. XJ  .xXBXmXFXCXbXFX&XC.>XVXSXsXaX9X,X",
"% $ e L P a G H.q.&XVXkXkXGXgX^.< BXkX|.SXVXmXhXtX}.XX:X+X6X#XoXOX6XZ...1 U !.G.8.7.O.K.G.&.3 ,XxXVXkXbXkXSXbXaX9XkXJXjXkX8XXXoX",
"@ $ < b Y f M I.7.oXCXGXVXMXOX7., BXVX5X9X8XrXrX#X@XL.F.).+XoX&X$X^.m i i V.!.5.W.!.!.V.&.~.4 rXGXSXjXSXbXcXzXxXgXxXVX9XeX#X#X@X",
"= - * a ' l i C.=.~.wXwX`.^.D.G.g iXCX|.q.q.8.8.5.;XZ.Z.,X:XXX XrXwXJ.f p V.D.H.H.%.N.A.D.W.2 eXvX9X9XVXMXrX$X,X,XrXeXXXXXXX:X@X",
"% # o s a o < b d d W f H V.H.=X: C.rXrXrXtX:X).T.mXC.U U.P.P.L.,.Q.^.) 2 +.m A ( m s f I Y 3 -X,X&X X,X,X,X}.XX$XwX#XOXOX#XrXXX",
"k $ t Y S l J @.,.^ M < y l e e X O W W d W W g m L.Z V @.m C 7 hXrX#X.XZ :XrXmX>X,X` o u w q p a a a c 3.eXjXAXgXxXjXzXzXgXeX&X",
"8 . q D S F <.6.j.4X!.P G [ L #.A.P %.#.m #.;XrXhXmX X.X).@XmXrXxXcXzXBX}.rX6X@XoX6XB B M.] A.[  . . .v ^ NXSXfXbXbXbXbXbXVX&XgX",
"8 * e S [ J <.(.b.3X(.b w e e ~ D.W.!._.S.H.NXcXcXhX&X&X#X).Q.P.hXGXGXxXhX7X$X@XXX~.B K.=XF.D.!.1.Z.Z.L 2.CXbXsXcXkXkXkXbXVX^.zX",
"% Q d n ] M 7 y.h.a.:.c L V.&.!.5.8.,.,.V 3.ZXnXlXaX*XXX#X`.&.7.2 7.t.q.hXt.6.F.T.B.f H !.2.&.8.y.4.&.C 1.NXxXbXbXcXbXkXGXMX9.tX",
"r $ ~ #.M.I.1.!.a.x.7X7 B $.T.A.K.I.+.F./ c 7.zX9X X:X$XW.y.7.C.:X5.I.>X%X3._.S.9.F.m L.2.q.9.4.6.X.G.M.C.tX`.6X&X}.XXoXeXgXq.gX",
"h O d b b F U Q.a.u.(.A ( $.#.N 2 3.%.1.B Z }.SXjX}.3.1.y.y.%.n %X7 }.E (.t.)._.T.E.9 R T T.M.M.Z k N 8 d ].A.K.Y G G G G G v <X",
"@ * y 2 > i ..P.q.tXFX3.I.NXrXa ^ oXMXCX,XmXeX0XAX8X2.P.+X/.(.Q.p.x.3X3Xu.^.5 4 d Q d Q d W y k 3.$ N w * 4 q 1 % x l g d x y & ",
"% Q l G F x {.U.0.O.&.5._.D.1.! eX|.x.w.O.|.c.c.x.|.o.9.5Xu.x.2Xr.c.f.3Xj.(.gXUXAXcXMXMXcXFX^.&.tXp F.E.Y.,.[ A.).NXzXcXcXPX,XP ",
"r *   Y G   M @.( D.!.&.6.W.6.N FXc.f.z.c.0Xc.g.x./.6 >.0Xv.b.b.z.e.qX/.i.i.zXSXnXnXbXlXSXSX^.9.mX1 O.N.F.w.'.&.}.gXaXnXdXkXgXU.",
"h %   ' Y w F +.( H.!.G.G.B.D.I tXx.f.v.l.1Xu.z.y.t.6 :.5Xv.g.g.m.k.O.7.7 0.CXZXgXMXGXMXzX8XP.V.].O 8.S.3.w.'.&.$XFXAXFXAXMXrX).",
"@ $ o v v t K m Y S.$.V.F.N.S.H R.$X/.5Xi.8.4.y.$.<.M Z i.p.u.1Xi.^.V I I 5.PXAXCXCXzXNXNXXX#.n _ . F.J.^ >.I.Z.[.mX,X&X:X,XI.@.",
"= # * K K y z P Y #.m I ^ @.#.a u I.6.t.@.V V C ' x y : C y.4.t.8.*.T v Y <.].pX}.&X#X9X9Xq.L.Z.LXt %.N.3.O.#.<.|.oX4.4.Q.y.O.^.",
"% r r r r r t z x w 9 - t x 9 r h y p w h k t p k r r @ @ h h j d l i d t t k W f x | ~ G Y F x X.t r h l : j k H / F a F G F F ",
"d g f f l i s B :.o.O.4 n 3.&.:.@.o.>.o.C U ^ ]._ ) .._ _ _ H H 8 Y.R.Z..X XU. XU.K.z i N C V G ` R S l 1 U.Z.[.K.C.^ K.C.( I c ",
"U V b b B N o.6.l.5X2X5 >.i.c.a.c.c.z.u.y.:.9.gX8XOXOXOX#X$XQ.6.A.KXUXjXcXVXjXlXGXmX) H F.8.G.G.:.y.V.f 4 CX6XcXhXhX&XeX@X;XU.V ",
"R R D Y ' G P N.f.l.~.5 5.>.e.r.j.z.j.u.(.1.2.BXtX6X+X+XwX:X!.&.B 0.aXDXnXnXVXnXAXhX! I H.&.4.4.4.=.T.l W mXvX0X9XaXeXzX#XoXP..X",
"J J F l l f G V.v.c.4XZ Q.i.k.n.j.v.v.x.^.@.3.BX,XXX.X X:X;XC.N &X&XsXDXkXZXCXkXvXhXI J T.D.D.7.G.%.M.q * K.GXsXjXcXGXvX6Xi.o.mX",
"N V V b N Z o.9.z.c.2X5 O.i.k.l.x.c.c.p.t.o.,.MXzX6XOX|.#X#XP.,.gXGXcX9XzXNXMXFX8X.Xv v V.S.M.T G $.P | y  .CXkXxXxXeXt.^.XX7.rX",
"B I.;X;X;X;XU.G.q.P.G.g V 2.6.,.V A :.:.Z H ( >X@X^.G.5.D.G.5.1.c C.C.T A.H.y.e.^.L.I L S.S.T F / $XO.C > 1.MXSXKXKXrX8.^.^.T.C ",
"X = h @ % y * o & @ r # $ % 8 & = % q q % % $ t & * y q % r $ & * $ & % . G (.l.o.@.Z.S.6.5.N w , OXx.p.^.(.p.d.2 5 F. X.Xm T.U ",
"-   L <.K.1 N 7.2X4Xj.-.u./.p.p.(.cXsXsXbXxXxX&X+XT.G a b C 7.G.5.5.Z.C.A 6 e.v.1Xr.g.g.c.(.A s *.(.1Xc.z.l.c.w.h ..CXxX^.'.S.P.",
"# < L b J w N @.e.l.z.f.f.h.g.v.8.GXlXlXnXgXgX*X4.U N  .Z.8.Q.6.W.!.&.5.&.(.3Xj.u.j.v.k.v.u.O._.u.c.f.f.z.l./.y.a 3.nXsXp.y.O.w.",
"* y K v K w G U 6 :.t.i.5X1Xx.u.7 CXkXbXbXSXSXlXOX2.c G 1.4.6.6.1.T.V.C.B K.P.4.o.8.t.8.i.o.6 }.v.v.g.z.x.y.Q.G.h f ].U.F.E.A.I.",
"= @ w p x y z G 4.t.w.w.j.z.v.v.c KXhXCXxXMXxXjX#X5.c H Z.I.F.P $.S.+.V.s s b $.*.@.P U #.m 6 t.w.w.p.(.6.o.V L p K.BXCX^.5.P. X",
"& .   q h r q w D Z.I.).(.=.O.>.I KX%X%X X:X@XoX6.$.b G ( ( J u Y R 0 ( M f a Y I v a j a G 3.,.N V C. .N s a a e / >X,X2.V U ( ",
"h t e q t l p 1 @ = X y M c B ` m ^.o.6 C 1.1.P.W.'.A.I b c F p 1 f 2 B B B g a B s x | ~ ) K.! ~ z K z s / ) ! X.~ ~ /  ...| w ",
"J J F M F J J H ( ! 4 :.|.c.c.s./.5Xa.w.t.G.G.XXy._._.T.F.1.Z.A.@.`./.2Xp.p./.~.1X7X8XCXPXMXGXzXBX X;X.X XBXCXNXkXlXbXSXlXjXoX@.",
"] L N T R D R Z.,X%XZ >.j.k.3Xj.f.g.z.u.~.Q.6.#X^.G.1.6.y.&.6.D.,.(.x.f.z.g.z.c.l.x.s.9XSXkXbXVXAX|.7X#XOXcXSXAXbXbXMXVXbXCX,X<.",
"U b T v b T D J.&X%X! o.l.g.g.r.g.f.c.w.Q.S.^.8Xq.3.2.1.Q.^.5..X! i.1Xg.e.a.5X1Xn.p.B _ aXnXZXkXSX|.OX:X_.}.CXZXxXVXkXbXCXNX,X3.",
"I I I G G G T R.).U.V 5.2Xf.j.5X2Xu.u.O.$.M._.rXD.%.N.S.!.&.P A.R &.4X3X3Xj.j.j.j.j.+..XtXAXcXIXMXoX#X).G.6.xXVXcXkXAXAXjX9X&X#X",
"a J K  . .v F J J.R. .C.Q.y.y.F.F.Q.F.T Y |  ./ N.D M.] V.L F x % w T 6.^.O.9.4.q.D.F | A.R.K.F.K.( R.T._.H.NXGX,XP.}.}.oX#X_.,X",
"z p : : w i w w 2 K e i c c M i t p : 1 < o 1 1 u 8 r w < g d o # X l 1 g < e < 3 i O # q d - e 1 o e e / B 0.Z x w 1 s H / v F ",
"r t K x | X.l y ) ( F  .) B F x X d 2 [.[. .H U z l t X.) ].R.K.Y.K.%XZ.Z.a x k {.T.R.-XA.u : K.Y.Y. .F K...K.g X.-X>X>X>X[.[.Y.",
"& r x 1 u J t x G.'.$.$.@.V P n e [.o.Q.!.!.W.W.J a w R. X6X7XwX7X|.rX:X).b j k I.`.+X,X_.L u T.:X:X:X_. X>X,XI.,.NXCXbXkX9X9XXX",
"@ % x K H M 8 p m $.+.D m U V.n : LXQ.y.&.'.$.m G a u ( @X+X6X+X7XoX&X XT.L z k {.rXOXP.J.' o I `.6X6XrX#X#XXXG.i.jXlXvXvX0X5XOX",
"& % < F I s s x B H S G B B / v o LX,.,.U Y z ~ F x t 1 [.}.&XL.+X@X.XZ.C D c i K.7Xi.9.D.' q R.*X*X*XxX*XoX).G.@XeXzX8X8XXX7.:X",
"&   w K K j u G *.P H ' T P +.+.w LX7 o.@.b F J *.N i -XY._.,X$.E.V.M.D G J i f A U Z c I c > ;X;X+X+XoXoX&.D.Z.|.9X8X$X:X^.&X&X",
"= $ o     w F C.&.V.] F Y U S.J.: LX}.).U.C.> ^ qX|.Z 2 2 s   1 + 3 3 e d X X k .X.XA.F J x w  .i L V.K.I.Q.Q.7.^.oX&XeX#X,.L..X",
"# * l z F J I 2.(.^.T M R._.@X X,X}.}.}.> <.KXCXyXFX&X].>X{.d Q A @X^.$.#.R M.M.P R v : w y     o w p o f ,XMXVXMXVXxXgXVXPXmX@.",
"=   p J Y N m 8.u.(.m ^ @XeX&X#X}.8XXX@X,X2.MXAXbXhX*XeX:XI.( > &XXX6.G.1.b D D b R ' K K { K F x J }   g KXFXDXVXxXlXlXbXxX:X@.",
"=   u b R P o.i.e.p.A U.@XOX(.7X7XOX#X:XL.2.GXsX>X0.7.wX+X^.+XG.CX,.o.I.<.H F J U T T R G L P U L R [   f KXvXdXcXcXDXDXlXjX$X5.",
"% y G T V.H.G.i.l.(.A .X,XoXXX8X#X+X#X.XU mXxXaXY.V.:XrX,X_.U 2.tX=.W.!.+.#.P b V V n b L b L m L m D   g mXzXnXxXgX9X9XgXGXXXm ",
"= y z b G ] <.7.(.q.2 | [.I. X_.[.U.U.Z./ iX].2. . .;XI.Y. .c C.;X<.#.F.T c N T N I s s z a z p z a ' t x I.U..X>XI.L. X;X.X^ Z.",
"= $ s F v s 2 Z ,.V   @ } :  .G | : c c 1 p ..4 d l J s p w G D o ~ a > v / K.Z.I.R.K q $ . * # #   x & y s b  .f z a a s F u  .",
"r * s a b * a D T :.A Z A o.` - , B @.@.@.A C 1.@.g + W J.U ~ K.0.].! L l d 8XpXXX|.^.9.;.6 A ! * X.Y a B ( ..d # ~ U._ {./ ... ",
"r y Y F R d J V.^.|.a.(.2Xv.e.0 o.(.2Xj.x.1X1X/.(.@.3 X.tX,X%X).,XrX.XN.Y B 3Xn.k.k.j.j.j.2X4X/.q A.%.<.F.H.E.z ~ @XFXxXhXNX.XC.",
"@ $ L n R y K H *.=.O.*.W./.1.r :.a.c.h.g.n.5Xa.4X&.g ..$X}.}.6X6X+X$XW.( N k.f.g.z.c.c.1X1Xy.O.  L +.5.Q.W.V.a C.zXHXDXjXGX6X}.",
"= X G b N.* l a S F.1.G c 2 q ; Q.2Xk.b.m.v.l.e.&.C i K.wX8X*XtXXX).L.S.B B 4Xx.f.g.z.x.u.4.O.*.O / 1.7.G.6.#.p ..CXkXkXZX|.OXq.",
"= X L L E.$ y a B 5 2 N P.i.,.y P &.=.u.1X/.y.&.) J p A.7XwX].rX$X}.^ 5.4 i 4X/.3X2X/.y.%.U /  .*  .H.7.6.W.#.f _ hXOXaX,X8.Q.2.",
"% X Y Y M.. r K J C C #.+.;.C h t F G Z ^ ) I V g F p T B.I.` _.`.!.9.!.M a B.O.Q.6.%.C b i q %   ] '.&.&.B.M.S M G.=.^.5.D.&.P.",
"& * K K K # h K { S D [ D *.Y # '  .' D G b m *.6 C u ~ R.{.g V.).o._.'.J k D M +.P P #.M.[ K S r S ] L I #.D j G D.=.8.5.D.Q.Z.",
"% X 1   8 # % 8 * 1 B C.4.u.(.u 1     e d 1 N ^.4X(.B < , 3 O T.[.2 {.n $ ; 8 - X X O o o o $ & # % q O O w   # ~  X$X.X>X#..X2 "
};
