/* XPM */
static char *c8511b7f980d4ff4d4e7340a12c85098NvFAJWOV0uvqur1I[] = {
/* columns rows colors chars-per-pixel */
"64 64 160 2 ",
"   c #0C0C0E",
".  c #0E0E10",
"X  c #131315",
"o  c #161619",
"O  c #18171C",
"+  c #1B1B1D",
"@  c #1E1E21",
"#  c #232324",
"$  c #262825",
"%  c #292927",
"&  c #262629",
"*  c #27282B",
"=  c #2B2B2D",
"-  c #2E302F",
";  c #31312F",
":  c #2E2E31",
">  c #302F34",
",  c #2E3034",
"<  c #323335",
"1  c #363837",
"2  c #353539",
"3  c #38373C",
"4  c #36383C",
"5  c #3A3A3D",
"6  c #3C3D41",
"7  c #3E4044",
"8  c #424244",
"9  c #454649",
"0  c #464A4D",
"q  c #4B4B4D",
"w  c #4E4E50",
"e  c #535355",
"r  c gray37",
"t  c #5F6160",
"y  c #616263",
"u  c #6C6C6E",
"i  c #6F6E73",
"p  c #706F74",
"a  c #6F7072",
"s  c #737373",
"d  c #797876",
"f  c #7C7C7E",
"g  c #807F7D",
"h  c #7E7E82",
"j  c #7F8084",
"k  c #858484",
"l  c #898987",
"z  c #8B8B8B",
"x  c #908E8F",
"c  c #939394",
"v  c #999896",
"b  c #96959A",
"n  c #97989C",
"m  c #9A9B9C",
"M  c #A2A19E",
"N  c #9E9FA1",
"B  c #A3A3A3",
"V  c #A5A6A8",
"C  c #AFAFAD",
"Z  c #AAAAAB",
"A  c #AFB0AB",
"S  c #B1B1AF",
"D  c #B0B0AE",
"F  c #AFAFB1",
"G  c #AFAFB1",
"H  c #B3B3B1",
"J  c #B6B7B2",
"K  c #B7B7B5",
"L  c #B2B2B3",
"P  c gray72",
"I  c #BDBEB9",
"U  c #BCBCBC",
"Y  c #BCBCBD",
"T  c #BEBFC1",
"R  c #C0C0C1",
"E  c #C2C2C4",
"W  c #C3C3C4",
"Q  c #C9C8C6",
"!  c #C6C6C8",
"~  c #C7C8CC",
"^  c #CACBCB",
"/  c #CECED0",
"(  c #CECED0",
")  c #CFD1D0",
"_  c #D6D7D2",
"`  c #D2D2D4",
"'  c #D7D7D7",
"]  c #D3D4D5",
"[  c #D5D6D9",
"{  c #D7D8DC",
"}  c gray85",
"|  c #D8D8DA",
" . c #DBDBDC",
".. c #E0DFDD",
"X. c #E2E1DF",
"o. c #DDDDE0",
"O. c #E3E3E1",
"+. c #E4E5E0",
"@. c #E5E5E5",
"#. c #E7E7E5",
"$. c #E5E5E7",
"%. c #E7E7E7",
"&. c #E5E5E5",
"*. c #E8E7E5",
"=. c #EDE9E6",
"-. c #E7E7E9",
";. c #E6E7E9",
":. c #E7E8EA",
">. c #EDEEE9",
",. c gray93",
"<. c #EDEDEF",
"1. c #EAEAEB",
"2. c #EDECF1",
"3. c #EFEFF1",
"4. c #EEEEF0",
"5. c #EFF0F2",
"6. c #F1F1F1",
"7. c #F3F3F1",
"8. c #F3F3F3",
"9. c #F0F0F2",
"0. c gray97",
"q. c #F4F4F4",
"w. c #F4F4F4",
"e. c #F9F7F3",
"r. c #F6F8F7",
"t. c #F8F8F6",
"y. c #FCFAF7",
"u. c #F6F6F9",
"i. c #F8F7FC",
"p. c #F7F9F9",
"a. c #F9F9F9",
"s. c #FAFAF8",
"d. c #FBFBF9",
"f. c gray98",
"g. c #FBFBFB",
"h. c #F8F8FA",
"j. c #FCFDF8",
"k. c #FDFEF9",
"l. c #FCFCFA",
"z. c #FDFDFB",
"x. c #FEFFFA",
"c. c #FFFFFA",
"v. c #FFFFFB",
"b. c #FAFAFC",
"n. c #FBFBFD",
"m. c gray99",
"M. c #FDFDFD",
"N. c #FDFFFC",
"B. c #FEFEFC",
"V. c #FFFFFD",
"C. c #FCFCFE",
"Z. c #FDFCFF",
"A. c #FDFDFF",
"S. c #FFFDFE",
"D. c #FFFDFF",
"F. c #FDFFFE",
"G. c #FEFEFE",
"H. c #FEFEFF",
"J. c white",
"K. c #FEFEFE",
/* pixels */
"G.G.G.G.G.G.G.G.G.G.G.G.G.G.G.G.G.G.G.G.G.G.G.G.G.G.G.G.G.G.G.G.G.G.G.G.G.G.G.G.G.G.G.G.G.G.G.G.G.G.G.G.G.G.G.G.G.G.G.G.G.G.G.G.",
"G.G.G.G.G.G.G.G.G.G.G.G.G.G.G.G.G.G.G.G.G.G.G.G.G.G.G.G.G.G.G.G.G.G.G.G.G.G.G.G.G.G.G.G.G.G.G.G.G.G.G.G.G.G.G.G.G.G.G.G.G.G.G.G.",
"G.G.G.G.G.G.G.G.G.G.G.G.G.G.G.G.G.G.G.G.G.G.G.G.G.G.G.G.G.G.G.G.G.G.G.G.G.G.G.G.G.G.G.G.G.G.G.G.G.G.G.G.G.G.G.G.G.G.G.G.G.G.G.G.",
"G.G.G.G.G.G.G.G.G.G.G.G.G.G.G.G.G.G.G.G.G.G.G.G.G.G.G.G.G.G.G.G.G.G.G.G.G.G.G.G.G.G.G.G.G.G.G.G.G.G.G.G.G.G.G.G.G.G.G.G.G.G.G.G.",
"G.G.G.G.G.G.G.G.G.G.G.G.G.G.G.G.G.G.G.G.G.G.G.G.G.G.G.G.G.G.G.G.G.G.G.G.G.G.G.G.G.G.G.G.G.G.G.G.G.G.G.G.G.G.G.G.G.G.G.G.G.G.G.G.",
"G.G.G.G.G.G.G.G.G.G.G.G.G.G.G.G.G.G.G.G.G.G.G.G.G.G.G.G.G.G.G.G.G.G.G.G.G.G.G.G.G.G.G.G.G.G.G.G.G.G.G.G.G.G.G.G.G.G.G.G.G.G.G.G.",
"G.G.G.G.G.G.G.G.G.G.G.G.G.G.G.G.G.G.G.G.G.G.G.G.G.G.G.G.G.G.G.G.G.G.G.G.G.G.G.G.G.G.G.G.G.G.G.G.G.G.G.G.G.G.G.G.G.G.G.G.G.G.G.G.",
"G.G.G.G.G.G.G.G.G.G.G.G.G.G.G.G.G.G.G.G.G.G.G.G.G.G.G.G.G.G.G.G.G.G.G.G.G.G.G.G.G.G.G.G.G.G.G.G.G.G.G.G.G.G.G.G.G.G.G.G.G.G.G.G.",
"g.G.G.G.g.G.z # = # = = # # # = = $ # # & & # # = & # # + # + = # # # # # # @ + + @ o # # + O @ @ @ # @ = B n.G.G.G.G.G.G.G.G.G.",
"G.G.G.G.G.g.z = < < = = ; < < < < ; < < , < < < 5 2 < = = < < = < = = = = = = = : # < < 2 < 2 & & : < : # l ;.G.G.G.G.G.G.G.G.G.",
"G.G.G.G.G.G.R k s s 9 = = < 5 5 < < < 5 5 6 5 = < 2 < < < < % < = = = = < < = = < < < = : : 5 2 = : = < = e R n.G.G.G.G.G.G.G.G.",
"G.G.G.G.G.G.0.@.} ' U B c = = < 5 5 5 2 < 2 5 6 2 5 5 : = = % = # # # # = # # = = = < = < 2 2 2 < < : < < # V g.G.G.G.G.G.G.G.G.",
"G.G.G.G.G.G.G.G.g.g.G.G.8.@.l = < 8 8 6 7 5 2 6 6 < 9 5 = S M M C H H L C V V P f O + @ # = # 6 : 5 2 2 3 : Z ,.G.G.G.G.G.G.G.G.",
"G.G.G.G.G.G.G.G.G.G.G.g.g.G.0.u < 5 2 < 6 4 < 5 2 5 : 5 l A I +.8.t.c.c.g.8.,.8.@.@.] F e 5 < = 2 = : < @ < n @.G.G.G.G.G.G.G.G.",
"g.G.G.G.G.G.G.G.G.g.0.G.G.G.G.B < < 4 6 4 : < 4 < 4 = < k J >.c.c.c.t.g.G.G.G.g.G.G.g.G.,.8.f + < > 2 2 2 = 5 } n.G.G.G.G.G.G.G.",
"G.G.G.G.G.G.g.G.G.G.G.G.g.G.G.G.q 2 , 4 , : 2 2 = < = = l _ c.c.c.c.G.G.G.G.G.G.G.G.G.G.G.g.n.V p = 3 5 2 : & / n.G.G.G.G.G.G.G.",
"G.G.G.G.G.G.G.G.G.G.G.G.G.G.G.G.9 2 = < 2 6 : 7 , = = < l O.G.G.G.G.g.G.G.G.G.G.G.G.n.G.G.n.G.G.3.u # 6 : 2 : E 3.G.G.G.G.G.G.G.",
"G.G.G.G.G.G.G.G.G.G.G.G.G.G.G.G.5 : 4 4 , , 5 4 : = # , z @.G.c.G.G.G.G.G.G.G.G.G.n.G.n.n.G.G.G.G.b = = < : & m @.G.G.G.G.G.G.g.",
"G.G.G.G.G.G.G.G.G.G.G.G.G.G.G.G.n < 0 2 < 2 2 , : 4 = < l +.c.c.G.G.G.G.G.G.G.G.G.G.G.G.G.G.G.G.m.G.h = = 5 < # } G.G.G.G.g.G.G.",
"G.G.G.G.G.G.G.G.G.G.G.G.G.G.G.G.~ < 6 6 5 = 4 , < 8 , < z O.c.G.G.G.G.G.G.G.G.G.,.B @.G.g.G.G.g.G.i.G.o # < : : ` 0.g.G.G.G.G.g.",
"G.G.G.G.G.G.G.G.G.G.G.G.G.G.G.G.o.< 2 , : : 4 2 < 6 : < z -.G.G.G.G.G.G.G.G.G.G.L # 5 u g.G.g.G.i.G.G.! o # # # } 8.G.G.g.G.G.G.",
"G.G.G.G.G.G.G.G.G.G.G.G.G.G.G.G.9.2 6 2 4 6 , = < 5 < < z -.G.c.G.G.G.G.G.G.G.G.l O + U O.0.G.G.G.G.G.-.  . X O 9 ,.g.g.G.0.G.G.",
"G.G.G.G.G.G.G.G.G.G.G.G.G.G.G.G.u.5 , 4 2 2 7 7 2 2 5 < z @.c.G.G.G.G.G.g.G.G.0.l # # R -.G.g.G.G.g.G.u.s z Y ^ ' 8.G.G.g.G.g.G.",
"G.G.G.G.G.G.G.G.G.G.G.G.G.G.G.G.n.< 2 2 2 5 6 4 5 : 2 = z @.G.G.G.g.G.G.g.G.G. .q O # ~ -.G.G.g.n.G.G.G.n.8.0.u.G.G.G.G.G.G.g.G.",
"G.G.G.G.G.G.G.G.G.G.G.G.G.G.G.G.g.< 6 4 < 5 5 , 2 2 < = z @.G.G.G.G.G.G.G.G.G.H # # < ~ 0.G.G.G.G.G.G.G.G.G.G.G.G.G.G.G.G.G.G.G.",
"G.G.G.G.G.G.G.G.G.G.G.G.G.G.G.G.G.: 4 2 < < , = = q = # l -.g.G.G.G.G.G.0.G.0.# = = < ^ 0.G.G.G.G.G.G.G.G.G.G.G.G.G.G.G.G.G.G.G.",
"G.G.G.G.G.G.G.G.G.G.G.G.G.G.G.G.G.: < 2 4 6 6 6 , = 2 @ z -.g.G.C.G.r.g.,.^ # 1 - < = ` r.g.G.C.G.G.G.G.G.G.G.G.G.G.G.G.G.G.G.G.",
"G.G.G.G.G.G.G.G.G.G.G.G.G.G.G.G.n.: < , < 5 5 4 6 8 5 = z  .g.G.h.G.r.n t # # < 5 = 5 ) g.G.g.G.G.G.G.G.G.G.G.G.G.G.G.G.G.G.G.G.",
"G.G.G.G.G.G.G.G.G.G.G.G.G.G.G.G.C.< 5 < 2 5 4 4 2 2 6 = z } ' c a u y # & < 5 < 5 4 e ' G.n.G.n.G.G.G.G.G.G.G.G.G.G.G.G.G.G.G.G.",
"G.G.G.G.G.G.G.G.G.G.G.G.G.G.G.G.w.= < < 2 2 , < 6 @ q : 5 < 5 = = = # = < = 2 = 4 < f ] n.G.n.G.G.G.G.G.G.G.G.G.G.G.G.G.G.G.G.G.",
"G.G.G.G.G.G.G.G.G.G.G.G.G.G.G.G.G.2 5 5 5 5 , < 2 6 < : < < 5 < : , 6 = 2 = * : : 2 j [ C.G.G.G.G.G.G.G.G.G.G.G.G.G.G.G.G.G.G.G.",
"G.G.G.G.G.G.G.G.G.G.G.G.G.G.G.G.n.2 5 : 2 5 2 , 5 < 2 < : = < < < < : < < 4 < < < , j { G.G.n.G.G.G.G.G.G.G.G.G.G.G.G.G.G.G.G.G.",
"G.G.G.G.G.G.G.G.G.G.G.G.G.G.G.G.g.2 6 < : 2 4 < 3 5 5 = < ; < = ; < = = 2 : 2 3 : < i [ G.G.G.G.g.G.G.G.G.G.G.G.G.G.G.G.G.G.G.G.",
"G.G.G.G.G.G.G.G.G.G.G.G.G.G.G.G.u.: 5 < 5 6 4 , 8 < : < d v M B v S # = = 6 9 : : : e  .m.G.c.G.G.g.G.G.G.G.g.G.G.G.G.G.G.G.g.G.",
"G.G.G.G.G.G.G.G.G.G.G.G.G.G.G.G.G.< 5 < 5 2 < 2 < : 5 = k Q =.y.c.,.8.' s 5 & : 3 2 < ' g.G.G.t.g.G.G.G.G.G.G.G.G.G.G.G.g.G.G.G.",
"G.G.G.G.G.G.G.G.G.G.G.G.G.G.G.G.g.: 2 = 5 2 5 7 6 : < = l X.c.e.t.G.g.G.G.,.u : : > @  .G.G.c.G.G.G.G.g.G.g.G.G.G.G.g.G.G.g.G.G.",
"G.G.G.G.G.G.G.G.G.G.G.G.G.G.G.G.u.= < & 5 5 5 5 2 < < < l ..c.c.G.c.G.g.G.G.w.k : 6 = ] 0.G.G.G.G.g.G.G.G.G.8.G.g.G.G.g.G.G.G.G.",
"G.G.G.G.G.G.G.G.G.G.G.G.G.G.G.G.G.< 4 * < < < , : 6 2 < z O.c.c.t.G.G.g.G.G.G.E & & < ` 8.G.G.c.G.g.G.G.G.G.s q r s  .G.g.G.G.G.",
"G.G.G.G.G.G.G.G.G.G.G.G.G.G.G.G.n.< 5 : : , < 2 2 9 8 = z @.c.c.G.G.G.G.n.g.G.G.c & # ~ 0.G.g.G.g.G.G.G.G.G.e = = # m g.G.G.G.G.",
"G.G.G.G.G.G.G.G.G.G.G.G.G.G.G.G.n.< 6 5 5 6 4 2 2 = 2 # k O.c.c.G.G.G.g.G.G.G.G.c + < / @.G.n.G.G.G.G.g.G.} 8 < < r C 0.G.G.G.G.",
"G.G.G.G.G.G.G.G.G.G.G.G.G.G.G.G.n.5 5 7 7 2 2 < 3 < 5 # l *.y.c.G.G.G.G.G.G.G.G.F 6 # f @.g.G.G.G.G.G.G.G.z = < 5 y ~ g.G.G.G.G.",
"G.G.G.G.G.G.G.G.G.G.G.G.G.G.G.G.G.2 2 < 5 2 2 2 6 5 5 # g >.e.c.G.G.G.G.G.G.G.G.9.z B m  .G.G.g.G.g.G.G.W 8 = 5 < s ' G.G.G.G.G.",
"G.G.G.G.G.G.G.G.G.G.G.G.G.G.G.G.n.< : 2 4 5 : < 2 8 < = k +.c.c.G.G.G.G.G.G.G.G.G.0.-.,.8.G.G.G.G.G.G.u.l & < = 8 c @.G.G.G.G.G.",
"G.G.G.G.G.G.G.G.G.G.G.G.G.G.G.G.8.< 5 4 < 7 7 6 2 5 5 = k @.y.c.G.G.G.G.G.G.G.G.g.G.g.G.G.g.0.G.G.G.g.^ @ = < 2 q L 9.G.G.G.G.G.",
"G.G.G.G.G.G.G.G.G.G.G.G.G.G.G.G.3.< , 2 2 4 : : 6 8 9 = k *.y.c.G.G.G.G.G.G.G.G.G.g.G.g.G.G.G.G.G.G.F # = 5 < & 9 T g.G.G.n.G.G.",
"G.G.G.G.G.G.G.G.G.G.G.G.G.G.G.G.^ < 5 : 6 = 6 2 2 8 5 # k O.c.c.G.G.G.G.G.G.G.G.g.G.g.G.g.G.G.G.G.B = & : 2 = = u ] n.G.G.G.G.G.",
"G.G.G.G.G.G.G.G.G.G.G.G.G.G.G.G.8 6 < 2 2 9 = 7 : : < + g *.y.c.G.G.G.G.G.G.G.G.G.G.G.G.G.G.G.G.L = # : : = 5 : B -.n.G.G.G.G.G.",
"G.G.G.G.G.G.G.G.G.G.G.G.G.G.G.G.e < 5 5 2 6 9 : 3 5 & < x O.G.c.G.G.G.G.G.G.G.G.G.G.G.G.G.G.G.R X = & < : < & < L 3.G.G.G.G.G.G.",
"G.G.G.G.G.G.g.G.G.G.g.G.G.G.g.G.q 6 6 2 , 7 < 5 5 = 2 < z O.G.G.g.G.G.g.G.G.G.G.G.G.G.G.G.R L # < 6 < : , 6 , 5 T u.G.g.G.G.G.G.",
"G.G.G.G.G.G.G.G.g.g.G.G.g.G.G.B 5 6 2 7 4 2 8 4 < 6 > : z ' G.G.G.g.G.G.g.G.g.G.G.G.G.@.s 5 # : < < 4 2 6 6 5 h / n.G.G.G.G.G.G.",
"G.G.G.G.G.G.G.0.G.g.G.G.G.G.G.u < 4 4 4 9 7 < : 2 2 6 & q R 8.G.G.G.G.G.G.G.G.G.G.@.w 9 = < = = < 4 4 2 , 5 , m @.G.G.G.G.G.G.G.",
"G.G.G.G.G.g.G.G.g.G.c.G.G.g.V < 8 2 0 4 2 5 , 2 2 : 3 : < = ` ,.<.9.,.3.<.8.o.& = = < < 5 < 5 6 6 , * 2 = = * V 5.G.G.G.G.G.G.G.",
"G.G.G.G.G.G.G.g.G.G.G.G.} V = 5 : 5 5 < 6 4 < 5 6 < 9 5 < < < < = + = = = # & = < < < < 2 5 < 5 6 : = = < * e T g.G.G.G.G.G.G.G.",
"G.G.G.G.G.G.W z z c z c e 5 5 5 8 6 2 < , < 5 : 2 6 < < 5 = < = : < = : < < # : : = 5 2 : 2 9 = : < < , = = f ' G.G.G.G.G.G.G.G.",
"G.G.G.G.G.g.z < 5 5 7 5 < 8 < < , 5 8 5 5 6 5 8 8 < = = 5 = 5 = = : = < = 5 2 6 < < = 5 5 5 5 < = , = 4 = = z <.G.G.G.G.G.G.G.G.",
"G.G.G.G.G.G.z < = 5 < 5 < 5 8 = 2 < 5 5 : 5 2 < 2 = 8 < = = : 5 < < # < 2 : = < : < = < = : < 8 * = # # = < N h.G.G.G.G.G.G.G.G.",
"G.G.G.G.G.G.0.,.@.@.@.@.@.@.@.@.;.;.@.@.@.@.@.@.@.@.;.;.;.;.;.;.-.-.-.-.-.-.-.-.-.-.-.-.-.-.-.-.;.;.:.;.@.;.8.g.G.G.G.G.G.G.G.G.",
"G.G.G.G.G.G.G.g.g.g.g.g.g.g.g.g.n.n.g.g.g.g.g.g.g.g.n.n.n.n.n.n.G.G.G.G.G.G.G.G.G.G.G.G.G.G.G.G.G.G.G.G.n.n.G.G.G.G.G.G.G.G.G.G.",
"G.G.G.G.G.G.G.G.G.G.G.G.G.G.G.G.G.G.G.G.G.G.G.G.G.G.G.G.G.G.G.G.G.G.G.G.G.G.G.G.G.G.G.G.G.G.G.G.G.G.G.G.G.G.G.G.G.G.G.G.G.G.G.G.",
"G.G.G.G.G.G.G.G.G.G.G.G.G.G.G.G.G.G.G.G.G.G.G.G.G.G.G.G.G.G.G.G.G.G.G.G.G.G.G.G.G.G.G.G.G.G.G.G.G.G.G.G.G.G.G.G.G.G.G.G.G.G.G.G.",
"G.G.G.G.G.G.G.G.G.G.G.G.G.G.G.G.G.G.G.G.G.G.G.G.G.G.G.G.G.G.G.G.G.G.G.G.G.G.G.G.G.G.G.G.G.G.G.G.G.G.G.G.G.G.G.G.G.G.G.G.G.G.G.G.",
"G.G.G.G.G.G.G.G.G.G.G.G.G.G.G.G.G.G.G.G.c.c.c.c.G.G.G.G.G.G.G.G.G.G.G.G.G.G.G.G.G.G.G.G.G.G.G.G.G.G.G.G.G.G.G.G.G.G.G.G.G.G.G.G.",
"G.G.G.G.G.G.G.G.G.G.G.G.G.G.G.G.G.G.G.G.G.G.G.G.G.G.G.G.G.G.G.G.G.G.G.G.G.G.G.G.G.G.G.G.c.G.G.G.g.G.G.G.G.G.G.G.G.G.G.G.G.G.G.G.",
"G.G.G.G.G.G.G.G.G.G.G.G.G.G.G.G.G.G.G.G.G.G.G.G.G.G.G.G.G.G.G.G.G.G.G.G.G.G.G.G.G.G.G.G.G.G.G.G.G.G.G.G.G.G.G.G.G.G.G.G.G.G.G.G."
};
