/* XPM */
static char *_75c243b0d074c9cfd7a5ab557b981baYLTG7asZLN1Plo2D[] = {
/* columns rows colors chars-per-pixel */
"64 64 146 2 ",
"   c #050505",
".  c #070803",
"X  c #080806",
"o  c #060609",
"O  c #08070C",
"+  c #0A090A",
"@  c #10100E",
"#  c #0E0D11",
"$  c #100F14",
"%  c #131215",
"&  c #16151A",
"*  c #18171C",
"=  c #19181D",
"-  c #1E1D23",
";  c #242425",
":  c #27262B",
">  c #2B2B2C",
",  c #2E2D32",
"<  c #302F34",
"1  c #333235",
"2  c #353539",
"3  c #38373C",
"4  c #3B3A3D",
"5  c #3D3C41",
"6  c #403F44",
"7  c #434245",
"8  c #46454A",
"9  c #48474C",
"0  c #4B4A4D",
"q  c #4D4C52",
"w  c #504F55",
"e  c #525254",
"r  c #55545A",
"t  c #58575D",
"y  c #5A5A5E",
"u  c #595762",
"i  c #5D5D62",
"p  c #605F65",
"a  c #636366",
"s  c #646368",
"d  c #69696A",
"f  c #6E6D72",
"g  c #706F75",
"h  c #727276",
"j  c #76757A",
"k  c #78777C",
"l  c #79797C",
"z  c #7D7C82",
"x  c #7E7D82",
"c  c #7F7E83",
"v  c #7D7C81",
"b  c #7D7C82",
"n  c #7F7D88",
"m  c #807F84",
"M  c #807F85",
"N  c #807F84",
"B  c #818181",
"V  c #818183",
"C  c #838383",
"Z  c #818085",
"A  c #838385",
"S  c #828186",
"D  c #838287",
"F  c #848484",
"G  c #858587",
"H  c gray53",
"J  c #868686",
"K  c #828285",
"L  c #898987",
"P  c #818088",
"I  c #838288",
"U  c #83828A",
"Y  c #848388",
"T  c #848389",
"R  c #858489",
"E  c #868688",
"W  c #878789",
"Q  c #85848A",
"!  c #86858A",
"~  c #86858B",
"^  c #87868B",
"/  c #86858D",
"(  c #87868C",
")  c #85848A",
"_  c #88878C",
"`  c #88878D",
"'  c #88878F",
"]  c #88878D",
"[  c #898989",
"{  c #88888A",
"}  c #89888D",
"|  c #8A8A8C",
" . c #89888E",
".. c #8A898E",
"X. c #8A898F",
"o. c #8B8A8F",
"O. c #8D8D8D",
"+. c gray56",
"@. c #8A898E",
"#. c #8B8A90",
"$. c #8B8A92",
"%. c #8C8B90",
"&. c #8C8B91",
"*. c #8C8B93",
"=. c #8D8C91",
"-. c #8E8E90",
";. c #8E8D92",
":. c #8E8D93",
">. c #8F8E93",
",. c #8D8C94",
"<. c #8C8B91",
"1. c #908F94",
"2. c #908F95",
"3. c #908F95",
"4. c #909090",
"5. c gray57",
"6. c #929292",
"7. c #939393",
"8. c #939395",
"9. c #929196",
"0. c #939297",
"q. c gray58",
"w. c #959597",
"e. c #979797",
"r. c #939296",
"t. c #949398",
"y. c #94939B",
"u. c #959499",
"i. c #979799",
"p. c #96959A",
"a. c #97969B",
"s. c #949399",
"d. c #99999B",
"f. c #9A999D",
"g. c #9795A0",
"h. c #9D9CA3",
"j. c #A09FA5",
"k. c #A2A1A7",
"l. c #A7A6AB",
"z. c #A8A7AD",
"x. c #ABAAAE",
"c. c #A8A6B1",
"v. c #ACABB1",
"b. c #B0AFB5",
"n. c #B2B2B6",
"m. c #B5B4BA",
/* pixels */
"o l |   +   + + %.h   X     3 _ 0 + +   O a 9.%   + o O P v         3 / q o     o s 9.% o +     R m   X   + & | d   +   o 0 | 2 ",
"o l |   +   + + %.h   X     3 _ 0 + +   O a 9.%   + o O P v         3 / q o     o s 9.% o +     R m   X   + & | d   +   o 0 | 2 ",
"o l |   +   + + %.h   X     3 _ 0 + +   + a 9.%   + o O P v         3 / q o     o s 9.% o +     R m   X   + & | d   +   o 0 | 2 ",
"o l |   +   + + %.h   X     3 _ 0 + +   + a 9.%   + o O Y v         3 / q o     o s 9.% o +     R m   X   + & | d   +   o 0 | 2 ",
"o l |   +   + # ;.h   X     3 _ 0 + +   + a 9.%   + o O Y v X X     3 / q o   X o s 9.% o +     R m   +   + & | d   +   o 0 | 2 ",
"o l |   +   + # ;.h   X     3 _ 0 + X   + a 9.%   + o O P v X X     3 / q o     o s 9.% o +     R m   +   + & | d   +   o 0 | 2 ",
"o l |   +   + # %.h   X     3 _ 0 + +   + a 9.%   + o O P v X       3 / q o     o s 9.% o +     R m   X   X & | d   +   o 0 | 2 ",
"o l |   +   + + %.h   X     3 _ 0 + +   + a 9.%   + o O P v         3 / q o     o s 9.% o +     R N   X     & | d   +   o 0 | 2 ",
"  l O.  +     % %.h   % +   3 | 0     + + a 4.%   +     H V       + 3 H e +   + o y e.*       . R v     +   % 1.d     O   9 | 3 ",
"  j H     + +   | j   + +   3 R 0 % %     a 4.%     + + l j   + +   1 { 0     + + a e.+ + + X   | v o +   + = / d +   + O e R 2 ",
"+ l 4.+     + + R l         3 | 0 +     + a 4.% +   + + V H     +   3 4.e     + o a i.+ +       $.v   +   O - R a +       w _ 3 ",
"  j { +       % R j     + + 3 $.e     + + a 9.% +   o   Z H   o +   1 H 0 + O   o s e.# %     + R Z   +   # = | a   + O   q ;.3 ",
"  V V   + #   # ,.h o + + + 1 _ e   + #   y d.% o # O   v l   # +   1 Z 0 o + o   s ;.+ #   +   m R o + + + # ;.d   + &   q ;., ",
"  _ | O   #   # t.f O     O 3 / 0 o o   o s i.%   O o # _ m O O o O 3 | r o   #   d 1.&     #   Y Z +   +   & ;.d     +   0 | 3 ",
"1 v R 3 , < , 3 %.l 3 3 > 3 t P p 3 1 , 7 h %.5 1 > , 5 R v 5 > , 3 q Y s 2 , 2 3 h %.9 , , 3 1 R R 3 1 3 1 9 R j 1 1 1 1 y Y a ",
";.v Z m t.9._ | z $.v i.R | P n | _ ;.;.| h Y Y i._ 9.R Z v | ;.;.i.k Z Z | i.| %.z v Z 9.;.| { z ;.l O.e.H m z H H 4.;.;.v Z v ",
"m p s l v %.R v i d l L O.V f y f R %.R Z f a f | R | k d i v R ;.v d a h Z | Z Z d s j | H l l i f h O.{ V l r d Z { _ Z g p f ",
"O 7 w %   O O # r 3 +     + : 0 1 #     $ 5 9 & o o o $ w 7 %   o # : 7 , # O o O 3 w & o   + + w 0       + ; q 3 #   o O , 7 , ",
"  k Z o   O o O Z i %   + + , j 9 o     o a Z *   O   O v h o o   o 5 j 9 o   O   a R %     #   k h + + + o & z a o   o   0 l 3 ",
"o j Z   + O + O | d +   +   < R 0 o % #   s 4.% o % +   V l   % #   1 Z 0   o + o a | O %   +   Z v   +     $ %.s   + %   q R , ",
"O h | O O   + % | h +     + 3 ;.w o       d 4.& O o   o R R   o +   1 | 0 O O   O a 9.# %     + | v   +   + = %.a   + +   9 | 3 ",
"+ j O.+     + + Y j +   + + 3 R 0 +     + d { * +     + V H +     + 1 O.0   +   o a i.+ +     + R v + %   # - Z a X X     0 O.4 ",
"  l H     + +   ,.j         3 | 8   + +   a H %   +   + l j + o   + 1 O.8     + o i 9.+ + + X   | Z         = %.d   X   + 0 { 1 ",
"  V H   +     % $.f   @ +   3 Y e     +   d e.% + +   + { l +     + > 4.e +   + o i d.*       . z R O   % + % ;.d   + X   8 ;.1 ",
"o l |   +   + + %.h   X     3 _ 0 + +   + a 9.%   + o O P v         3 / q O   X o s 9.% o +     R m   X   + & | a   +   o 0 %.3 ",
"o l {   +   + + %.h   X     3 _ 0 + +   + a 9.%   + o O P v       X 3 / q O   X o s 9.% o +     R m   X   + & | a   +   o 0 %.3 ",
"o l {   +   + + %.h   X     3 _ 0 + +   O a 9.%   X   O P v     X X 3 _ q O   X o s 9.% o +     R m   X   + & | a   +   o 0 %.3 ",
"o l {   +   + + %.h   X     3 _ 0 + + o O a 9.%   + o O Y v     X X 3 _ q O   X o s 9.% o +     R m   X   + & | d   +   o 0 %.3 ",
"o l |   +   + # ;.h   X     3 _ 0 + +   + a 9.%   + o O Y v X X     3 / q O   X o s 9.% o +     R m   +   + & | a   +   o 0 %.3 ",
"o l |   +   + # ;.h   X     3 _ 0 + X   + a 9.%   + o O Y v X X     3 / q O   X o s 9.% o +     R m   +   + & | a   +   o 0 %.3 ",
"o l |   +   + # %.h   X     3 _ 0 + X   + a 9.%   + o O P v         3 / q O   X o s 9.% o +     R m   X     & | a   +   o 9 %.3 ",
"o l |   +   + + %.h   X     3 _ 0 + +   + a 9.%   + o O P v         3 / q O   X o s 9.% o +     R N   X     & | a   +     9 %.3 ",
"o l |   +   + + %.h   X     3 _ 0 + +   + a 9.%   + o O Y v X   X   3 / q O   X o s 9.% o +     R v +   X   = | d   +   o 0 %.3 ",
"o l |   +   + + %.h   X     3 _ 0 + +   + a 9.%   + o O Y v X       3 / q O   X o s 9.% o +     R v +   X   = | d   +   o 0 %.3 ",
"o l |   +   + + %.h   X     3 _ 0 + +   + a 9.%   + o O P v     X   3 / q O   X o s 9.% o +     R v +   X   = | d   +   o 0 %.3 ",
"o l |   +   + + %.h   X     3 _ 0 + +   + a 9.%   + o O P v X   X   3 / q O   X o s 9.% o +     R v +   X   = | d   +   o 0 %.3 ",
"o l | o +   + + %.h   X     3 _ 0 + +   + a 9.%   + o O P v   X   X 3 / q O   X o s 9.% o +     R v +   X   = | d   +   o 0 %.3 ",
"o l |   +   + + %.h   X     3 _ 0 + +   + a 9.%   + o O P v         3 _ q O   X o s 9.% o +     R v +   X   = | d   +   o 0 %.3 ",
"o l |   +   + + %.h   X   X 3 _ 0 + +   O a 9.%   + o O P v         3 / q O   X o s 9.% o +     R v +   X   = | d   +   o 0 %.3 ",
"o l |   +   + + %.h   X   X 3 _ 0 + + o + a 9.%   + o O P v         3 / q O   X o s 9.% o +     R v +   X   = | d   +   o 0 %.3 ",
"  l {   +     O R h   + X   3 Z e     +   s 4.%     X   L l   X   + > H 0 + X + o d d.+ + +   + Z v   + +   = Y d   + +   8 O.1 ",
"  Z O.    + + o 9.l +       3 ,.0   + +   d 9.% +   +   H V   +     4 4.8     +   d f.+ o + +   $.R +     O = t.d   O #   0 4.3 ",
"O j Z # o # o % / f &   + # 1 / 0 O o o O s R - #   O # k Z O O O   7 Y 9 O o o # p $.& O   %   P l %     % % R a #   O O e Z 3 ",
"t z P y y r w i P z i e a y a U h y r r r z $.u r q r y Z _ q r p 9 d Z g i t t u j / i i q y y Z m y t r y q Z l t r r q h R d ",
"v.;.9.f.b.n.v.k.,.9.k.v.n.z.h./ f.z.m.m.l.t.9.g.v.n.b.z.9.;.k.n.n.l.f.| f.z.v.n.c.a.,.h.n.m.l.z.%.1.l.x.n.z.f.9.i.l.m.m.k.9.1.f.",
"5 5 q 1 5 7 9 3 q 7 3 7 3 5 9 3 7 4 5 7 7 6 5 5 7 7 5 5 9 3 5 5 3 9 5 3 5 6 3 7 3 7 9 3 3 0 3 4 9 7 4 3 7 4 7 7 7 5 7 7 7 3 5 6 ",
"O e d + +   + # d r + +   + 3 y 4 +     # q i = +     + a r +     % > y 3 %   + O 9 f *   +   + a y #   + o - y q O     % 3 i 1 ",
"  h l   %     + v h   .     1 v 7 + +     a R %     +   F h   + X   ; H 7 X     + e O.%   +     j v     + o & Z a   +     7 H 1 ",
"o l |   +   + + %.h   X     3 _ 0 + +   + a 9.%   + o O P v X   X   3 / q o   X o s 9.% o +     R v +   X   = | a   +   o 0 %.3 ",
"o l |   +   + + %.h   X     3 _ 0 + +   + a 9.%   + o O P v     X   3 / q o   X o s 9.% o +     R v +   X   = | a   +   o 0 %.3 ",
"o l |   +   + + %.h   X     3 _ 0 + +   + a 9.%   + o O P v     X   3 / q o   X o s 9.% o +     R v +   X   = | a   +   o 0 %.3 ",
"o l |   +   + + %.h   X     3 _ 0 + +   + a 9.%   + o O P v     X X 3 / q o   X o s 9.% o +     R v +   X   = | d   +   o 0 %.3 ",
"o l |   +   + + %.h   X     3 _ 0 + + o + a 9.%   + o O P v     X   3 / q o   X o s 9.% o +     R v +   X   = | a   +   o 0 %.3 ",
"o l |   +   + + ;.h   X     3 | 0 + + o + a 9.%   + o O P v     X   3 / q o   X o s 9.% o +     R v +   X   = | a   +   o 0 %.3 ",
"o l |   +   + + %.h   X     3 _ 0 + +   + a 9.%   + o O P v     X   3 / q o   X o s 9.% o +     R v +   X   = | a   +   o 9 %.3 ",
"o l |   +   + + %.h   X     3 _ 0 + +   + a 9.% X + o O Y v     X   3 / q o   X o s 9.% o +     R v +   X   = | a   +     9 %.3 ",
"o l | o +   + + %.h   X     3 _ 0 + X   O a 9.%   + o O Z v +       3 / q O   X o s 9.% o +     R v +   X   = | d   +   o 0 %.2 ",
"o l |   +   + + %.h   X     3 _ 0 + +   O a 9.%   + o O Z v +       3 / q O   X o s 9.% o +     R v +   X   = | d   +   o 0 %.2 ",
"o l |   +   + + %.h   X     3 | 0 + +   + a 9.%   + o O Z v +   X X 3 / q O   X o s 9.% o +     R v +   X   = | d   +   o 0 %.2 ",
"o l |   +   + + %.h   X     3 | 0 + +   + a 9.%   + o O Z v +     X 3 / q O   X o s 9.% o +     R v +   X   = | d   +   o 0 %.2 ",
"o l |   +   + + %.h   X     3 _ 0 + +   + a 9.%   + o O Z v +   X X 3 / q O   X o s 9.% o +     R v +   X   = | d   +   o 0 %.2 ",
"o l |   +   + + %.h   X     3 _ 0 + X   + a 9.%   + o O Z v +       3 / q O   X o s 9.% o +     R v +   X   = | d   +   o 0 %.2 ",
"o l | o +   + + %.h   X     3 _ 0 X +   + a 9.%   + o O Z v +       3 / q O   X o s 9.% o +     R v +   X   = | d   +   o 0 %.2 ",
"o l | o +   + + %.h   X     3 _ 0 + +   + a 9.%   + o O Z v +       3 / q O   X o s 9.% o +     R v +   X   = | d   +   o 0 %.2 "
};
